<?xml version="1.0" standalone="no"?>
<!DOCTYPE svg PUBLIC "-//W3C//DTD SVG 1.1//EN" "http://www.w3.org/Graphics/SVG/1.1/DTD/svg11.dtd" >
<svg xmlns="http://www.w3.org/2000/svg">
<metadata>Generated by IcoMoon</metadata>
<defs>
<font id="icomoon" horiz-adv-x="1024">
<font-face units-per-em="1024" ascent="960" descent="-64" />
<missing-glyph horiz-adv-x="1024" />
<glyph unicode="&#x20;" horiz-adv-x="512" d="" />
<glyph unicode="&#xe900;" glyph-name="SS_Interface_mfg" horiz-adv-x="2233" d="M1968.608 90.969c-25.065 0-45.662 19.998-46.262 45.199-0.599 25.556 19.616 46.807 45.172 47.406 64.162 1.58 132.901 9.427 153.879 17.273 23.867 39.805 21.66 150.991 12.069 219.458-30.16 40.377-255.585 118.406-451.094 167.011-8.173 2.043-15.639 6.239-21.578 12.206-49.831 49.858-343.068 261.061-507.355 261.061-19.317 0-52.937 0.926-95.766 2.098-397.721 11.007-619.549 1.008-659.436-29.697-142.082-109.307-228.176-270.978-229.048-272.585-0.409-0.79-0.872-1.607-1.335-2.37-36.372-60.32-69.284-128.977-70.455-146.959 0-11.416-0.817-28.416-1.853-48.305-1.825-35.664-7.084-138.568 4.713-172.651 55.907-0.3 103.939-2.37 106.092-2.479 25.556-1.117 45.363-22.75 44.246-48.278-1.117-25.556-23.131-44.9-48.278-44.246-0.545 0.027-55.689 2.398-114.728 2.398-19.589 0-38.034 8.037-51.874 22.641-39.832 41.903-38.524 132.846-32.667 247.357 0.926 17.954 1.716 33.321 1.716 43.946 0 49.722 57.568 150.882 83.097 193.303 9.481 17.736 100.615 183.767 253.868 301.656 71.872 55.253 328.247 59.666 718.503 48.877 41.685-1.144 74.406-2.071 93.205-2.071 196.272 0 490.79-214.663 562.907-278.906 326.312-81.953 497.247-161.59 508.227-236.731 5.258-35.8 28.525-218.858-33.293-298.277-9.345-11.961-34.083-43.755-221.583-48.278-0.327-0.054-0.736-0.054-1.090-0.054zM1801.107-64c-112.603 0-204.201 91.625-204.201 204.228s91.597 204.228 204.201 204.228c112.63 0 204.255-91.625 204.255-204.228s-91.625-204.228-204.255-204.228zM1801.107 251.823c-61.519 0-111.568-50.049-111.568-111.595s50.049-111.595 111.568-111.595c61.546 0 111.622 50.049 111.622 111.595s-50.076 111.595-111.622 111.595zM369.795-64c-112.63 0-204.255 91.625-204.255 204.228s91.625 204.228 204.255 204.228 204.255-91.625 204.255-204.228-91.625-204.228-204.255-204.228zM369.795 251.823c-61.546 0-111.622-50.049-111.622-111.595s50.076-111.595 111.622-111.595 111.622 50.049 111.622 111.595-50.076 111.595-111.622 111.595zM1636.575 93.912h-1105.762c-25.583 0-46.316 20.761-46.316 46.316s20.733 46.316 46.316 46.316h1105.762c25.556 0 46.316-20.761 46.316-46.316s-20.733-46.316-46.316-46.316zM1429.159 538.766h-733.651c-23.921 0-44.218 16.238-49.368 39.478-11.743 53.019 101.024 187.935 133.99 203.302 16.701 7.765 48.251 16.647 145.215 16.647 97.537 0 220.575-8.909 273.13-12.723l9.863-0.708c41.113-2.942 287.407-114.51 284.6-193.439-0.681-19.48-14.876-52.555-63.78-52.555zM765.473 631.426h562.825c-49.041 29.343-106.528 58.386-126.88 61.001l-9.617 0.681c-51.547 3.733-172.242 12.478-266.428 12.478-75.060 0-98.872-5.64-104.757-7.52-11.688-9.154-35.691-39.015-55.144-66.641z" />
<glyph unicode="&#xe901;" glyph-name="SS_Interface_absenden" horiz-adv-x="2423" d="M2377.773-64h-1337.502c-24.802 0-44.903 20.127-44.903 44.903v934.194c0 24.802 20.101 44.903 44.903 44.903h1337.502c24.776 0 44.903-20.101 44.903-44.903v-934.168c0-24.802-20.127-44.929-44.903-44.929zM1085.174 25.832h1247.67v844.362h-1247.67v-844.362zM1709.009 322.641c-101.851 0-592.324 254.785-689.605 305.869-21.976 11.543-30.402 38.669-18.886 60.619 11.543 21.95 38.696 30.402 60.619 18.886 276.761-145.274 594.78-295.567 647.871-295.567s371.137 150.293 647.871 295.567c21.95 11.49 49.076 3.064 60.619-18.886s3.064-49.103-18.886-60.619c-97.255-51.084-587.728-305.869-689.605-305.869zM742.141 117.989h-697.238c-24.802 0-44.903 20.127-44.903 44.903s20.101 44.903 44.903 44.903h697.212c24.802 0 44.903-20.127 44.903-44.903s-20.074-44.903-44.877-44.903zM742.141 403.097h-446.759c-24.802 0-44.903 20.101-44.903 44.903s20.101 44.903 44.903 44.903h446.759c24.802 0 44.903-20.101 44.903-44.903s-20.101-44.903-44.903-44.903zM742.141 676.187h-223.379c-24.802 0-44.903 20.101-44.903 44.903s20.101 44.903 44.903 44.903h223.379c24.802 0 44.903-20.101 44.903-44.903s-20.101-44.903-44.903-44.903z" />
<glyph unicode="&#xe902;" glyph-name="SS_Interface_dashboard_02" horiz-adv-x="1698" d="M841.29-64v0c-57.452 0-111.71 22.613-152.774 63.677-82.29 82.29-81.065 217.484 2.742 301.355 70.71 70.677 371.29 154.677 407 154.677 14.548 0 29.742-6 40.032-16.29 13.871-13.871 19.29-34.129 14.161-53.065-14.129-52.323-87.968-316.774-157.677-386.452-41.161-41.194-95.677-63.903-153.484-63.903zM1020.484 325.226c-90.871-26.968-223.129-73.258-251.645-101.774-36.613-36.645-47.677-101.355-2.774-146.226 40.935-40.968 110.484-40.484 151.194 0.226 25.581 25.548 68.226 135.323 103.226 247.774zM1642.968 55.968h-606.839c-30.258 0-54.839 24.581-54.839 54.839s24.581 54.839 54.839 54.839h549.645c-31.226 364.839-368.516 684.677-737.129 684.677-387.226 0-703.129-362.032-736.129-684.677h573.935c30.29 0 54.839-24.581 54.839-54.839s-24.548-54.839-54.839-54.839h-631.613c-30.29 0-54.839 24.581-54.839 54.839 0 384.645 378.548 849.194 848.645 849.194 444.419 0 849.161-404.774 849.161-849.194 0-30.29-24.581-54.839-54.839-54.839z" />
<glyph unicode="&#xe903;" glyph-name="SS_Interface_dienstleistung" horiz-adv-x="1166" d="M148.522 232.010c-9.815 0-19.569 4.177-26.383 12.248l-74.079 87.868c-5.901 6.996-8.781 16.041-8.010 25.146 0.791 9.105 5.151 17.521 12.147 23.422l41.795 35.224c-0.324 0.771-0.608 1.541-0.933 2.312-4.989 12.39-9.186 25.328-12.573 38.631l-46.297 0.406c-19.022 0.183-34.332 15.736-34.19 34.758l0.831 114.88c0.081 9.125 3.772 17.886 10.281 24.294 6.449 6.347 15.148 9.916 24.193 9.916 0.081 0 0.162 0 0.264 0l53.191-0.406c2.17 6.347 4.482 12.35 6.956 18.17 1.987 4.644 4.117 9.267 6.489 13.992l-39.016 34.555c-6.854 6.063-11.011 14.601-11.559 23.726-0.527 9.125 2.555 18.129 8.639 24.943l76.309 86.023c12.613 14.215 34.393 15.534 48.629 2.94l42.403-37.577c12.999 7.584 26.241 14.114 39.625 19.529l-5.8 54.307c-2.028 18.94 11.66 35.914 30.601 37.942l114.251 12.289c9.105 0.872 18.21-1.703 25.308-7.442 7.138-5.719 11.681-14.053 12.654-23.179l6.205-57.835c11.802-2.454 23.361-5.556 34.697-9.349l32.081 41.592c11.64 15.047 33.298 17.845 48.324 6.246l91.072-70.124c7.24-5.577 11.985-13.81 13.141-22.875 1.196-9.085-1.298-18.251-6.895-25.49l-28.046-36.36c17.48-22.793 31.676-47.736 42.362-74.383 1.825-4.542 7.179-11.741 9.511-14.418 12.086-13.85 11.174-34.758-2.109-47.513l-361.044-347.052c-9.125-8.781-22.408-11.883-34.413-7.97-28.046 8.984-54.449 21.759-78.783 38.084l-39.645-33.379c-6.449-5.435-14.337-8.091-22.185-8.091zM208.933 351.838c7.686 0 15.371-2.555 21.698-7.706 18.515-15.006 38.854-27.113 60.654-36.137l117.333 112.791c-7.767-1.602-15.635-2.413-23.564-2.413-47.899 0-90.403 28.857-108.248 73.47-11.62 28.958-11.295 60.715 0.994 89.369 12.167 28.573 34.839 50.758 63.817 62.398 6.672 2.657 13.262 4.644 19.731 5.921 7.665 1.643 15.878 2.515 24.071 2.515 47.838 0 90.261-28.776 108.066-73.308 9.511-23.625 10.667-48.588 4.928-71.625l117.698 113.156c-1.054 2.109-2.028 4.238-2.92 6.428-11.194 27.944-27.316 53.414-47.939 75.762-11.397 12.35-12.248 31.128-1.967 44.431l23.909 31.006-36.441 28.066-26.687-34.596c-9.673-12.471-26.586-16.852-41.044-10.545-21.354 9.288-44.269 15.452-68.157 18.312-15.939 1.906-28.451 14.58-30.175 30.56l-5.313 49.602-45.708-4.928 5.029-47.209c1.764-16.568-8.558-32.020-24.558-36.745-6.915-2.048-13.79-4.441-20.542-7.138-16.771-6.712-33.46-15.858-49.582-27.133-13.060-9.166-30.682-8.132-42.626 2.433l-36.117 32.041-30.56-34.433 33.866-29.992c12.451-11.032 15.25-29.343 6.672-43.579-7.016-11.64-12.147-21.414-16.142-30.763-4.198-9.896-7.888-20.928-11.518-34.616-4.015-15.108-17.683-25.632-33.318-25.632-0.081 0-0.162 0-0.264 0l-44.492 0.345-0.345-45.992 39.686-0.345c16.831-0.162 31.087-12.411 33.744-29.060 2.961-18.433 7.807-36.157 14.439-52.684 2.981-7.503 6.327-14.641 9.916-21.638 7.321-14.297 3.812-31.736-8.456-42.079l-35.508-29.932 29.668-35.164 34.068 28.695c6.388 5.374 14.297 8.091 22.205 8.091zM385.42 583.098c-3.346 0-6.733-0.365-10.058-1.075-2.981-0.588-5.577-1.42-8.152-2.454-11.741-4.705-21.009-13.769-25.977-25.43-5.049-11.762-5.171-24.76-0.426-36.644 9.653-24.091 37.638-36.502 62.175-26.667 24.416 9.815 36.36 37.759 26.525 62.256-7.321 18.271-24.598 30.013-44.086 30.013zM222.52-64c-33.237 0-61.587 9.186-84.218 27.336-58.16 46.52-42.991 121.774-26.849 155.052 1.683 3.488 3.954 6.651 6.712 9.389l499.731 496.892c-13.323 44.127-28.796 142.479 51.752 241.359 52.056 63.98 216.821 89.227 249.308 93.648 11.437 1.622 23.077-2.798 30.702-11.579l43.924-50.697c12.37-14.297 10.93-35.914-3.245-48.426l-124.816-110.155 9.632-37.252 45.465-2.616 136.395 115.305c12.857 10.829 31.655 10.869 44.492 0l52.482-44.309c9.937-8.375 14.297-21.638 11.316-34.292-3.894-16.385-39.442-161.46-90.362-212.401-68.745-68.786-141.161-83.224-189.81-83.224v0c-31.534 0-57.612 5.779-75.093 11.174l-499.752-492.918c-3.123-3.082-6.814-5.556-10.869-7.24-3.67-1.561-36.968-15.047-76.897-15.047zM171.579 83.67c-4.684-12.492-14.641-46.966 9.774-66.515 10.119-8.091 23.97-12.208 41.146-12.208 18.697 0 36.076 4.826 44.715 7.686l510.013 503.098c10.403 10.302 26.2 12.877 39.3 6.428 0.101-0.020 28.431-13.181 68.542-13.181 51.812 0 99.265 21.212 141.060 63.027 24.862 24.862 51.954 103.584 66.859 159.169l-13.749 11.599-124.654-105.349c-6.753-5.719-15.513-8.619-24.233-8.091l-84.279 4.847c-14.946 0.872-27.64 11.295-31.392 25.774l-21.232 82.068c-3.245 12.573 0.831 25.896 10.565 34.474l115.082 101.556-9.125 10.545c-69.151-11.397-163.224-37.029-186.869-66.089-77.769-95.493-35.954-188.046-34.15-191.939 6.165-13.161 3.488-29.019-6.834-39.26l-510.54-507.64z" />
<glyph unicode="&#xe904;" glyph-name="SS_Interface_turnoff" horiz-adv-x="940" d="M382.482 805.914c-183.778-40.191-321.777-204.222-321.777-399.908 0-225.701 183.617-409.3 409.318-409.3 225.683 0 409.3 183.599 409.3 409.3 0 197.49-140.588 362.771-326.919 400.998l-1.036 61.991c220.541-38.62 388.678-231.539 388.678-462.989 0-259.16-210.863-470.006-470.024-470.006s-470.024 210.863-470.024 470.006c0 223.933 157.407 411.8 367.377 458.757l15.105-58.849zM542.317 541.612h-144.569c-16.766 0-30.353 13.587-30.353 30.353v357.682c0 16.766 13.587 30.353 30.353 30.353h144.569c16.748 0 30.353-13.587 30.353-30.353v-357.664c0-16.766-13.605-30.371-30.353-30.371zM428.101 602.336h83.863v296.959h-83.863v-296.959z" />
<glyph unicode="&#xe905;" glyph-name="SS_Interface_logout" horiz-adv-x="1427" d="M751.264-64h-716.547c-19.176 0-34.717 15.562-34.717 34.717v954.565c0 19.176 15.541 34.717 34.717 34.717h716.547c19.156 0 34.717-15.541 34.717-34.717v-377.399c0-19.176-15.562-34.717-34.717-34.717s-34.717 15.541-34.717 34.717v342.681h-647.112v-885.11h647.112v358.1c0 19.156 15.562 34.717 34.717 34.717s34.717-15.562 34.717-34.717v-392.817c0-19.176-15.541-34.738-34.717-34.738zM1006.968 27.96v0c-9.21 0-18.053 3.676-24.547 10.17l-116.875 116.957c-6.555 6.555-10.231 15.48-10.17 24.751s3.839 18.155 10.456 24.629l140.524 137.318-537.139 3.329c-19.095 0.123-34.493 15.643-34.493 34.717v150.428c0 9.21 3.676 18.053 10.191 24.568 6.515 6.494 15.337 10.17 24.547 10.17 0 0 0.020 0 0.020 0l523.498-0.511-127.433 127.413c-6.494 6.515-10.17 15.337-10.17 24.547s3.676 18.033 10.17 24.547l116.936 116.896c13.56 13.581 35.534 13.56 49.094 0l385.302-385.302c13.56-13.56 13.56-35.534 0-49.094l-385.363-385.363c-6.535-6.494-15.337-10.17-24.547-10.17zM939.473 179.328l67.495-67.556 336.228 336.248-336.187 336.207-67.821-67.801 162.232-162.212c9.925-9.925 12.907-24.874 7.515-37.862-5.391-12.968-18.033-21.423-32.063-21.423-0.020 0-0.020 0-0.041 0l-572.674 0.572v-81.177l587.092-3.656c14.071-0.102 26.712-8.679 31.96-21.709 5.269-13.070 2.124-27.999-7.924-37.842l-175.813-171.79z" />
<glyph unicode="&#xe906;" glyph-name="SS_Interface_standort" horiz-adv-x="752" d="M381.912 360.939c-119.383 0-216.518 97.119-216.518 216.501 0 119.4 97.136 216.535 216.518 216.535s216.518-97.136 216.518-216.535c0-119.366-97.136-216.501-216.518-216.501zM381.912 736.015c-87.419 0-158.557-71.139-158.557-158.574 0-87.419 71.122-158.54 158.557-158.54s158.557 71.122 158.557 158.54c0 87.436-71.122 158.574-158.557 158.574zM376.917-64c-8.609 0-16.775 3.836-22.281 10.45-14.473 17.405-354.636 428.69-354.636 631.025 0 210.927 171.326 382.525 381.912 382.525 204.159 0 370.234-169.945 370.234-378.826 0-105.233-93.385-271.922-171.701-393.214-51.21-79.287-96.931-140.777-119.621-170.354-62.581-81.606-70.15-81.606-83.907-81.606zM381.912 902.039c-181.639 0-323.951-142.567-323.951-324.564 0-141.033 215.819-438.475 321.274-569.518 73.099 86.157 314.95 425.059 314.95 573.234 0 179.918-137.163 320.848-312.273 320.848z" />
<glyph unicode="&#xe907;" glyph-name="SS_Interface_suchen" horiz-adv-x="1038" d="M117.142-64c-25.626 0-54.146 5.901-78.467 25.361-54.259 43.385-40.094 113.568-25.021 144.603 1.57 3.253 3.688 6.222 6.26 8.756l311.124 306.207c12.596 12.501 32.964 12.463 45.465-0.132 12.52-12.596 12.463-32.945-0.132-45.465l-306.642-301.763c-4.388-11.631-13.674-43.782 9.116-62.013 24.529-19.612 65.795-8.832 80.131-4.18l286.406 283.966c12.652 12.482 33.002 12.35 45.465-0.303s12.331-33.002-0.303-45.465l-291.456-288.94c-2.912-2.875-6.373-5.182-10.156-6.771-2.175-0.908-33.815-13.863-71.791-13.863zM660.848 205.101c-208.11 0-377.449 169.302-377.449 377.43s169.34 377.468 377.449 377.468c208.129 0 377.449-169.34 377.449-377.468 0-208.11-169.321-377.43-377.449-377.43zM660.848 895.699c-172.668 0-313.129-140.48-313.129-313.167 0-172.649 140.461-313.11 313.129-313.11s313.148 140.461 313.148 313.11c0 172.668-140.48 313.167-313.148 313.167z" />
<glyph unicode="&#xe908;" glyph-name="SS_Interface_profil" horiz-adv-x="837" d="M702.94-64c-0.097 0.016-0.21 0.016-0.323 0h-381.217c-8.434 0-16.4 3.878-21.603 10.503s-7.077 15.286-5.074 23.478c0 0.048 14.025 57.474 29.23 122.72-11.149 0.614-28.099 1.066-53.806 1.066l-42.14-0.129c-25.417 0-31.831 0.469-38.068 2.828-23.009 8.645-64.729 70.675-65.068 71.273-3.539 6.043-10.664 18.226-5.478 118.39-107.936 39.361-110.263 43.788-115.514 53.79-10.47 19.842-2.569 30.28 58.993 111.587 14.009 18.517 27.824 36.743 37.6 50.542 4.75 6.689 2.036 17.919-5.801 43.869-11.424 37.858-28.681 95.058-5.785 175.654 47.472 167.107 168.674 238.428 405.276 238.428 249.706 0 342.761-204.076 342.761-332.71 0-247.8-100.875-331.999-143.936-367.951-4.33-3.603-7.917-6.528-10.438-9.065-24.399-24.399 3.199-160.304 44.499-273.588 2.165-3.91 3.377-8.418 3.377-13.201-0.016-15.172-12.296-27.485-27.485-27.485zM356.301-9.046h307.585c-28.567 85.508-72.388 245.958-20.198 298.164 3.442 3.442 8.241 7.513 14.090 12.393 37.164 31.040 124.207 103.686 124.207 325.779 0 77.268-51.706 277.773-287.823 277.773-260.193 0-323.161-95.413-352.439-198.518-18.501-65.117-5.171-109.277 5.542-144.744 9.242-30.603 18.792-62.257-1.987-91.551-10.050-14.154-24.221-32.898-38.618-51.9-12.248-16.19-28.47-37.616-39.749-53.435 22.944-9.21 58.686-22.637 90.372-34.077 11.472-4.136 18.84-15.334 18.097-27.501-2.634-42.997-3.829-95.526-1.68-109.988 6.625-9.566 26.645-35.079 36.226-44.58 3.426-0.097 9.016-0.194 18.065-0.194l42.14 0.129c81.711 0 97.142-3.862 107.742-17.176 5.623-7.061 7.691-16.11 5.688-24.835-10.066-43.804-20.375-87.076-27.259-115.74z" />
<glyph unicode="&#xe909;" glyph-name="SS_Interface_take" horiz-adv-x="1425" d="M143.713 254.153c-49.192 0-114.579 9.992-117.342 10.395-9.498 1.464-17.77 7.247-22.455 15.629-4.667 8.4-5.216 18.465-1.446 27.304l169.261 398.309c2.745 6.46 7.595 11.804 13.762 15.153 124.242 67.583 338.576 180.973 378.105 180.973 23.827 0 197.535-14.036 405.062-31.001 65.552-5.344 127.792-10.431 143.841-11.566 27.121 7.979 178.045 63.832 270.718 98.658 9.535 3.587 20.259 2.269 28.64-3.55 8.4-5.801 13.396-15.372 13.396-25.566v-382.076c0-12.499-7.467-23.772-18.978-28.64l-405.922-171.914c-3.514-1.501-7.284-2.324-11.127-2.452l-521.617-16.891c-16.214-1.043-30.049 11.438-31.916 27.506-15.098 129.713 24.303 139.907 37.241 143.256 82.755 21.43 150.521 48.13 201.945 72.415l-297.492-23.717c-32.227-53.73-148.435-247.477-159.506-266.619-12.993-22.51-43.317-25.602-74.172-25.602zM75.8 320.913c20.936-2.306 46.556-4.52 67.913-4.52 12.938 0 20.442 0.824 24.449 1.519 27.469 46.465 158.207 264.331 164.136 274.195 5.161 8.619 14.183 14.201 24.193 15.006l451.581 35.997c13.689 0.952 26.554-6.991 31.513-19.856s0.824-27.451-10.12-35.851c-4.905-3.752-120.874-91.374-331.915-147.593-2.288-9.791-3.074-28.988-2.214-49.741l486.132 15.72 381.6 161.629v316.579c-232.672-87.073-241.383-87.073-247.879-87.073-4.246 0-25.511 1.684-151.582 11.987-140.913 11.511-376.769 30.781-399.992 30.781-25.072-4.081-190.599-87.842-338.851-168.236l-148.965-350.545zM413.535-64c-98.401 0-178.466 80.064-178.466 178.466s80.064 178.466 178.466 178.466 178.466-80.064 178.466-178.466-80.064-178.466-178.466-178.466zM413.535 230.692c-64.088 0-116.244-52.156-116.244-116.244s52.138-116.244 116.244-116.244 116.244 52.156 116.244 116.244-52.138 116.244-116.244 116.244z" />
<glyph unicode="&#xe90a;" glyph-name="SS_Interface_favorit-merkliste" horiz-adv-x="1266" d="M1258.249 583.359l-243.858 358.145c-7.866 11.576-20.985 18.496-34.976 18.496h-693.238c-14.015 0-27.084-6.92-34.976-18.496l-243.858-358.145c0-0.025-0.025-0.025-0.025-0.050-0.324-0.473-0.597-0.946-0.871-1.419-0.398-0.622-0.797-1.245-1.145-1.867-0.324-0.573-0.573-1.145-0.871-1.718s-0.597-1.17-0.846-1.767c-0.274-0.597-0.498-1.22-0.722-1.817s-0.473-1.195-0.672-1.817c-0.199-0.622-0.373-1.245-0.573-1.867-0.174-0.647-0.349-1.294-0.498-1.942-0.149-0.597-0.274-1.22-0.373-1.842-0.124-0.722-0.249-1.444-0.324-2.166-0.075-0.573-0.149-1.12-0.199-1.693-0.075-0.946-0.124-1.917-0.149-2.863 0-0.324-0.050-0.647-0.050-0.971 0-0.050 0-0.1 0-0.149 0-1.27 0.075-2.539 0.199-3.809 0.050-0.622 0.149-1.22 0.249-1.817 0.1-0.672 0.174-1.344 0.299-2.016s0.274-1.344 0.448-2.016c0.124-0.573 0.274-1.145 0.448-1.718 0.199-0.672 0.398-1.344 0.622-2.016 0.199-0.548 0.398-1.095 0.597-1.643 0.249-0.647 0.498-1.294 0.772-1.917 0.249-0.573 0.548-1.145 0.821-1.718s0.548-1.145 0.871-1.693c0.373-0.672 0.797-1.319 1.195-1.991 0.274-0.423 0.523-0.871 0.797-1.27 0.722-1.046 1.469-2.066 2.29-3.062 0.224-0.274 0.473-0.523 0.697-0.772 0.573-0.672 1.145-1.344 1.767-1.967l568.72-580.918c0.025-0.025 0.025-0.025 0.050-0.050l0.249-0.249c0.025-0.025 0.075-0.050 0.1-0.075 0.299-0.299 0.597-0.573 0.896-0.846 0.573-0.548 1.145-1.070 1.743-1.593 0.1-0.075 0.174-0.149 0.249-0.224 0.1-0.075 0.174-0.149 0.249-0.224 0.199-0.174 0.448-0.324 0.647-0.498 0.672-0.523 1.344-1.021 2.041-1.519 0.274-0.174 0.523-0.398 0.772-0.573 0.149-0.1 0.299-0.174 0.423-0.249 0.846-0.548 1.718-1.070 2.614-1.568 0.548-0.299 1.095-0.573 1.668-0.846 0.523-0.274 1.070-0.523 1.618-0.747 0.597-0.249 1.17-0.523 1.767-0.747 0.622-0.249 1.27-0.473 1.917-0.672 0.498-0.174 0.996-0.373 1.519-0.523 0.224-0.075 0.448-0.1 0.672-0.174 0.1-0.025 0.199-0.050 0.274-0.075 0.747-0.199 1.519-0.398 2.265-0.573 0.249-0.050 0.473-0.124 0.722-0.174 0.299-0.050 0.573-0.075 0.871-0.124 0.747-0.124 1.494-0.249 2.265-0.324 0.299-0.025 0.573-0.1 0.871-0.124 0.149-0.025 0.324-0.025 0.473-0.025 1.145-0.1 2.315-0.174 3.485-0.174 0.025 0 0.050 0 0.1 0 0 0 0 0 0 0s0 0 0 0 0 0 0 0 0 0 0 0c0.025 0 0.050 0 0.1 0 1.145 0 2.29 0.075 3.435 0.149 0.149 0 0.299 0 0.448 0.025 0.249 0.025 0.523 0.075 0.772 0.1 0.025 0 0.050 0 0.1 0 0.722 0.075 1.444 0.174 2.166 0.299 0.324 0.050 0.622 0.075 0.946 0.149 0.199 0.050 0.398 0.1 0.597 0.149 0.025 0 0.050 0 0.050 0.025 0.597 0.124 1.22 0.274 1.817 0.423 0.498 0.124 1.021 0.249 1.519 0.373 0.075 0.025 0.174 0.050 0.249 0.075 0.548 0.174 1.070 0.349 1.593 0.548 0.672 0.224 1.369 0.448 2.041 0.722 0.050 0.025 0.075 0.025 0.124 0.050 0.199 0.075 0.398 0.199 0.622 0.299 0.124 0.050 0.249 0.1 0.373 0.174 0.473 0.199 0.971 0.423 1.444 0.647 0.423 0.199 0.821 0.398 1.22 0.597 0.249 0.124 0.498 0.274 0.747 0.423 0.448 0.249 0.871 0.498 1.319 0.772 0.473 0.274 0.946 0.548 1.419 0.871 0 0 0.025 0 0.025 0.025 0.423 0.274 0.821 0.573 1.245 0.846 0.548 0.373 1.095 0.747 1.618 1.145 0.1 0.075 0.199 0.174 0.299 0.249 0.050 0.025 0.075 0.075 0.124 0.1 0.398 0.324 0.797 0.647 1.195 0.996 0.448 0.398 0.921 0.797 1.344 1.195 0.1 0.075 0.174 0.149 0.274 0.224l0.747 0.722c0 0.025 0.025 0.025 0.050 0.050l611.139 580.47c14.936 14.14 17.426 37.216 5.75 54.368zM784.498 517.217l-173.185-426.428-173.185 426.428h346.37zM469.021 601.855l142.292 251.525 142.292-251.525h-284.584zM346.768 517.217l144.483-355.755-348.262 355.755h203.779zM875.883 517.217h241.369l-392.971-373.255 151.602 373.255zM1143.241 601.855h-292.376l-154.714 273.506h260.885l186.204-273.506zM308.557 875.362h217.969l-154.714-273.482h-249.459l186.204 273.482z" />
<glyph unicode="&#xe90b;" glyph-name="SS_Interface_menue" horiz-adv-x="1146" d="M1105.737 689.339h-1065.716c-22.106 0-40.021 17.915-40.021 40.021v190.618c0 22.106 17.915 40.021 40.021 40.021h1065.716c22.082 0 40.021-17.915 40.021-40.021v-190.618c0-22.106-17.939-40.021-40.021-40.021zM80.042 769.382h985.65v110.576h-985.65v-110.576zM1105.737 312.67h-1065.716c-22.106 0-40.021 17.939-40.021 40.021v190.618c0 22.106 17.915 40.021 40.021 40.021h1065.716c22.082 0 40.021-17.915 40.021-40.021v-190.618c0-22.082-17.939-40.021-40.021-40.021zM80.042 392.712h985.65v110.576h-985.65v-110.576zM1105.737-64h-1065.716c-22.106 0-40.021 17.939-40.021 40.021v190.618c0 22.082 17.915 40.021 40.021 40.021h1065.716c22.082 0 40.021-17.939 40.021-40.021v-190.618c0-22.082-17.939-40.021-40.021-40.021zM80.042 16.042h985.65v110.576h-985.65v-110.576z" />
<glyph unicode="&#xe90c;" glyph-name="SS_Interface_map" horiz-adv-x="747" d="M746.544-36.437l-68.978 387.475c-2 11.202-11.726 19.341-23.094 19.341h-93.465c57.582 93.354 116.793 207.664 116.793 283.056 0 169.036-134.41 306.564-299.611 306.564-170.416 0-309.061-138.866-309.061-309.558 0-73.861 56.065-182.128 118.655-280.049h-95.355c-11.368 0-21.093-8.153-23.094-19.341l-68.978-387.475c-1.214-6.829 0.662-13.851 5.118-19.176s11.036-8.388 17.976-8.388h699.998c6.939 0 13.52 3.076 17.976 8.388 4.456 5.325 6.332 12.333 5.118 19.162zM378.19 913.095c141.694 0 252.693-114.048 252.693-259.645 0-119.855-195.717-394.124-254.872-463.888-85.325 106.060-259.977 346.737-259.977 460.881 0 147.281 115.151 262.653 262.156 262.653zM51.443-17.081l60.631 340.556h106.626c66.77-98.293 131.858-176.997 137.417-183.687 4.456-5.366 11.064-8.457 18.031-8.457 11.133 0 17.244 0 67.888 66.039 17.396 22.652 51.499 68.605 90.209 127.802 2.676-1.062 5.56-1.683 8.622-1.683h93.975l60.631-340.57h-644.030zM553.393 650.429c0 96.624-78.593 175.231-175.203 175.231-96.624 0-175.231-78.607-175.231-175.231 0-96.61 78.607-175.203 175.231-175.203 96.61-0.014 175.203 78.593 175.203 175.203zM249.864 650.429c0 70.757 57.569 128.326 128.326 128.326 70.743 0 128.298-57.569 128.298-128.326 0-70.743-57.555-128.298-128.298-128.298-70.757 0-128.326 57.555-128.326 128.298z" />
<glyph unicode="&#xe90d;" glyph-name="SS_Interface_leihen" d="M512-64c-282.305 0-512 229.676-512 511.981 0 282.324 229.695 512.019 512 512.019s512-229.695 512-512.019c0-282.305-229.676-511.981-512-511.981zM512 893.873c-245.857 0-445.873-200.035-445.873-445.892s200.015-445.853 445.873-445.853c245.857 0 445.873 199.996 445.873 445.853s-200.015 445.892-445.873 445.892zM507.799 354.761c-8.519 0-17.037 3.287-23.514 9.822l-188.949 191.088c-12.836 12.973-12.72 33.919 0.272 46.756s33.919 12.72 46.756-0.272l165.746-167.633 105.998 104.267c13.031 12.778 33.958 12.623 46.756-0.389s12.623-33.958-0.389-46.756l-129.512-127.412c-6.418-6.302-14.781-9.472-23.164-9.472zM516.182 797.852c-18.263 0-33.064 14.801-33.064 33.064v83.923c0 18.263 14.801 33.064 33.064 33.064s33.064-14.801 33.064-33.064v-83.904c-0.019-18.282-14.801-33.083-33.064-33.083zM121.46 414.936h-88.397c-18.263 0-33.064 14.82-33.064 33.064 0 18.263 14.801 33.064 33.064 33.064h88.397c18.263 0 33.064-14.801 33.064-33.064s-14.801-33.064-33.064-33.064zM985.607 416.064h-84.993c-18.243 0-33.064 14.82-33.064 33.064 0 18.263 14.82 33.064 33.064 33.064h84.993c18.243 0 33.064-14.801 33.064-33.064 0-18.243-14.82-33.064-33.064-33.064zM512-53.595c-18.263 0-33.064 14.82-33.064 33.064v94.445c0 18.243 14.801 33.064 33.064 33.064s33.064-14.82 33.064-33.064v-94.445c-0.019-18.263-14.801-33.064-33.064-33.064z" />
<glyph unicode="&#xe90e;" glyph-name="SS_Interface_kaufverkauf" horiz-adv-x="1061" d="M572.413-64c-0.858 0-1.697 0.038-2.555 0.114-103.014 8.124-346.342 35.031-380.706 109.25-24.676 53.3 68.975 222.218 151.87 354.542 3.337 5.32 8.143 9.573 13.864 12.224l465.832 215.525c16.228 7.532 35.508 0.458 43.040-15.809l193.843-418.864c7.532-16.247 0.439-35.508-15.809-43.040l-455.764-210.948c-4.272-1.964-8.925-2.994-13.616-2.994zM248.878 71.356c19.794-25.038 165.219-57.171 317.662-69.928l418.597 193.747-166.611 360.015-427.617-197.847c-70.901-114.246-142.641-252.215-142.030-285.987zM416.061 49.312c-53.414 0-96.874 43.46-96.874 96.874s43.46 96.874 96.874 96.874 96.874-43.46 96.874-96.874-43.46-96.874-96.874-96.874zM416.061 178.222c-17.658 0-32.037-14.359-32.037-32.037s14.359-32.037 32.037-32.037 32.037 14.359 32.037 32.037-14.378 32.037-32.037 32.037zM329.599 145.651c-2.155 0-4.367 0.229-6.56 0.667-14.398 2.956-352.273 75.115-320.999 312.761 21.587 164.075 127.843 168.614 221.589 172.618 75.458 3.223 153.491 6.56 220.597 75.497 41.648 42.754 49.219 83.124 22.502 119.967-40.008 55.187-135.242 81.637-177.119 61.080-16.076-7.895-35.489-1.24-43.383 14.836s-1.24 35.489 14.836 43.383c74.162 36.385 202.043-3.852 258.164-81.237 45.958-63.368 35.546-137.454-28.547-203.244-85.070-87.377-184.441-91.629-264.267-95.043-93.88-4.005-145.596-6.236-160.089-116.306-23.475-178.492 266.822-240.201 269.759-240.811 17.544-3.585 28.833-20.729 25.229-38.273-3.146-15.351-16.648-25.897-31.713-25.897z" />
<glyph unicode="&#xe90f;" glyph-name="SS_Interface_bewertungschlecht" horiz-adv-x="1081" d="M643.164-64c-2.148 0-4.334 0.23-6.481 0.652-10.796 2.186-19.713 9.665-23.797 19.866l-130.109 326.184-133.331 196.612-313.24-34.862c-9.147-1.074-18.428 1.918-25.351 8.111-6.903 6.175-10.854 15.015-10.854 24.277v450.56c0 8.668 3.452 16.971 9.588 23.088 6.098 6.079 14.382 9.511 23.011 9.511 0.019 0 0.058 0 0.096 0l910.037-2.685c10.163-0.038 19.732-4.794 25.888-12.905l50.682-66.809c7.766-10.259 8.802-24.123 2.608-35.399l-15.111-27.498 24.008-31.506c4.334-5.676 6.673-12.618 6.673-19.751v-58.621c0-5.638-1.477-11.199-4.276-16.108l-13.155-23.145 21.132-17.623c5.714-4.775 9.626-11.333 11.084-18.62l12.253-60.961c1.63-8.15 0.096-16.626-4.315-23.682l-14.075-22.532 5.849-4.315c6.558-4.852 11.026-11.985 12.579-19.981l16.070-83.013c2.8-14.363-4.353-28.822-17.431-35.361l-41.459-20.71c-3.548-1.783-7.383-2.876-11.314-3.279l-262.577-26.425 43.625-237.073c1.937-10.489-1.381-21.247-8.879-28.822l-116.226-117.492c-6.213-6.271-14.593-9.684-23.203-9.684zM365.38 546.507c10.719 0 20.864-5.293 26.961-14.305l146.371-215.826c1.323-1.956 2.435-4.027 3.298-6.213l112.985-283.249 69.245 69.993-46.962 255.156c-1.649 8.955 0.518 18.198 6.002 25.485 5.465 7.268 13.749 11.927 22.8 12.848l291.84 29.359 13.979 6.98-8.955 46.272-19.828 14.689c-13.653 10.125-17.22 29.033-8.246 43.453l23.145 37.067-7.44 37.010-33.232 27.729c-12.119 10.106-15.264 27.441-7.459 41.152l22.359 39.33v39.004l-30.183 39.618c-7.805 10.259-8.84 24.162-2.646 35.456l15.13 27.537-28.15 37.125-861.196 2.531v-381.43l296.557 33.021c1.227 0.134 2.435 0.211 3.624 0.211z" />
<glyph unicode="&#xe910;" glyph-name="SS_Interface_bewertunggut" horiz-adv-x="996" d="M30.327-64c-6.868 0-13.611 2.337-19.035 6.725-7.136 5.762-11.292 14.45-11.292 23.602v398.907c0 14.432 10.168 26.848 24.297 29.72l294.35 59.744 125.982 185.833 119.827 300.362c3.8 9.508 12.113 16.448 22.139 18.482 10.008 2.069 20.408-1.124 27.58-8.385l107.072-108.196c6.993-7.064 10.061-17.072 8.277-26.813l-40.139-218.033 241.528-24.279c3.675-0.375 7.225-1.409 10.543-3.051l38.194-19.088c12.166-6.083 18.803-19.534 16.198-32.896l-14.842-76.46c-1.445-7.439-5.619-14.075-11.703-18.589l-5.138-3.818 12.809-20.497c4.085-6.565 5.53-14.468 4.014-22.032l-11.292-56.123c-1.053-5.191-3.425-10.026-6.94-14.004l-20.212-23.066 18.125-25.171c5.138-7.136 6.922-16.127 4.888-24.69l-10.276-43.492c-1.57-6.69-5.388-12.63-10.775-16.876l-19.088-15.003 12.381-26.527c4.228-9.098 3.711-19.695-1.427-28.329l-41.816-70.323c-5.459-9.187-15.36-14.825-26.063-14.825h-451.926l-379.837-82.133c-2.123-0.446-4.264-0.678-6.404-0.678zM60.654 340.455v-336.54l346.263 74.818c2.105 0.446 4.246 0.678 6.404 0.678h437.904l24.797 41.709-15.77 33.824c-5.958 12.773-2.319 27.954 8.759 36.678l29.667 23.316 4.656 19.713-24.119 33.502c-8.242 11.471-7.493 27.098 1.82 37.695l30.773 35.126 7.314 36.392-21.247 34.020c-8.367 13.415-5.031 31.005 7.671 40.424l18.178 13.469 8.206 42.297-12.595 6.315-268.733 27.027c-8.438 0.838-16.127 5.191-21.211 11.952s-7.1 15.378-5.584 23.709l43.225 234.838-63.366 64.043-103.915-260.473c-0.803-2.034-1.837-3.978-3.068-5.78l-134.777-198.802c-4.46-6.565-11.292-11.114-19.070-12.702l-282.184-57.247z" />
<glyph unicode="&#xe911;" glyph-name="SS_Interface_freizeit" horiz-adv-x="1033" d="M840.305-64c-4.511 0-9.064 0.856-13.407 2.631-13.199 5.367-21.886 18.085-22.116 32.328-0.021 1.149-2.464 83.828-62.088 143.431-56.554 56.554-173.107 83.076-174.297 83.327-16.874 3.759-28.59 19.13-27.755 36.38 0.021 0.668 2.506 87.545-65.325 160.451-74.681 80.257-180.625 83.87-181.69 83.911-10.024 0.251-19.464 4.741-26 12.321s-9.565 17.605-8.312 27.546c0.418 3.55 9.648 92.14-58.454 160.2-52.481 52.481-112.585 60.313-143.744 60.313-10.17 0-16.289-0.877-16.352-0.877-15.057-2.151-30.115 5.513-36.985 19.192s-4.323 30.198 6.516 41.016c101.37 101.35 263.054 161.829 432.547 161.829 168.115 0 318.187-57.493 422.586-161.892 108.158-108.179 169.264-265.058 167.677-430.438-1.545-162.686-62.693-316.224-167.719-421.249-6.766-6.808-15.851-10.421-25.082-10.421zM610.332 260.097c43.418-12.551 129.752-42.645 182.588-95.481 36.505-36.505 56.95-78.523 68.353-113.963 63.591 87.295 99.7 199.567 100.848 317.707 1.399 146.438-52.126 284.773-146.897 379.544-90.991 90.991-223.228 141.092-372.381 141.092-117.848 0-230.746-32.078-316.621-88.109 38.635-10.108 83.556-30.846 124.865-72.133 63.278-63.257 77.208-139.296 79.442-183.214 46.613-7.852 130.65-31.535 196.81-102.623 62.443-67.079 78.837-142.345 82.993-182.818zM840.451 737.336c-9.105 0-18.169 3.467-25.102 10.4-13.867 13.867-13.867 36.338 0 50.205l79.38 79.38c13.867 13.867 36.338 13.867 50.205 0s13.867-36.338 0-50.205l-79.38-79.38c-6.913-6.933-15.997-10.4-25.102-10.4zM47.344-52.389c-9.084 0-18.169 3.467-25.102 10.4-13.867 13.867-13.867 36.338 0 50.205l437.267 433.884c13.867 13.867 36.338 13.867 50.205 0s13.867-36.338 0-50.205l-437.267-433.884c-6.933-6.933-16.018-10.4-25.102-10.4zM583.788 206.843c-9.105 0-18.169 3.467-25.102 10.4-13.867 13.867-13.867 36.338 0 50.205 278.32 278.32 246.973 497.517 246.639 499.689-3.070 19.276 9.962 37.528 29.175 40.744 19.338 3.174 37.466-9.586 40.807-28.799 1.796-10.275 40.264-255.159-266.416-561.839-6.913-6.933-15.997-10.4-25.102-10.4zM327.752 507.509c-9.084 0-18.169 3.467-25.102 10.4-13.867 13.867-13.867 36.338 0 50.205 291.017 291.059 542.48 234.819 553.11 232.25 19.046-4.574 30.804-23.745 26.23-42.812-4.574-19.046-23.578-30.866-42.833-26.23-8.855 2.005-225.254 47.615-486.302-213.413-6.933-6.913-16.018-10.4-25.102-10.4z" />
<glyph unicode="&#xe912;" glyph-name="SS_Interface_sucess" horiz-adv-x="1329" d="M457.124-64c-9.668 0-19.337 3.69-26.716 11.069l-419.339 419.339c-14.758 14.758-14.758 38.673 0 53.431l127.2 127.244c14.136 14.18 39.251 14.202 53.431 0l265.624-265.646 679.674 667.738c14.78 14.491 38.496 14.447 53.209-0.222l127.289-127.2c7.112-7.135 11.113-16.803 11.069-26.894s-4.134-19.737-11.313-26.805l-706.412-693.987-127-127c-7.379-7.379-17.047-11.069-26.716-11.069zM91.216 393.124l365.908-365.908 100.506 100.506 679.451 667.516-73.813 73.768-679.718-667.716c-14.825-14.536-38.518-14.425-53.209 0.244l-265.357 265.402-73.768-73.813z" />
<glyph unicode="&#xe913;" glyph-name="SS_Interface_fehler" horiz-adv-x="171" d="M146.094 234.242h-120.743c-14.002 0-25.351 11.363-25.351 25.351v675.057c0 14.002 11.348 25.351 25.351 25.351h120.743c13.988 0 25.351-11.348 25.351-25.351v-675.057c0-13.988-11.363-25.351-25.351-25.351zM50.701 284.943h70.027v624.355h-70.027v-624.355zM146.094-64h-120.743c-14.002 0-25.351 11.363-25.351 25.351v141.874c0 13.988 11.348 25.351 25.351 25.351h120.743c13.988 0 25.351-11.363 25.351-25.351v-141.874c0-13.988-11.363-25.351-25.351-25.351zM50.701-13.299h70.027v91.158h-70.027v-91.158z" />
<glyph unicode="&#xe914;" glyph-name="SS_Interface_give" horiz-adv-x="2156" d="M1871.27-64c-0.761 0-1.547 0.025-2.383 0.074-409.291 22.991-1028.495 57.133-1056.742 57.158-31.932 0-296.866 111.049-787.411 330.075-15.032 6.73-24.735 21.689-24.735 38.171v556.766c0 14.492 7.516 27.953 19.871 35.567 12.331 7.614 27.731 8.229 40.676 1.744l277.339-139.64 480.449 11.323c3.905-0.049 7.688-0.368 11.422-1.326 58.46-15.106 572.682-148.138 624.24-166.978 41.094-15.032 37.679-76.169 31.981-111.245-11.962-73.689-49.273-85.724-70.422-86.338l-311.53-9.113 260.12-118.884c493.148-92.553 507.1-102.624 516.335-109.305 13.534-9.751 49.617-35.739 32.374-249.632-1.744-21.787-19.97-38.416-41.585-38.416zM815.486 76.696c65.853-1.769 812.833-43.501 1016.656-54.898 2.579 57.551 0.884 111.442-4.421 133.696-61.751 15.868-321.527 66.246-484.011 96.728-3.341 0.614-6.583 1.646-9.678 3.070l-427.664 195.471c-17.661 8.081-27.412 27.24-23.556 46.276s20.289 32.89 39.694 33.455l477.28 13.976c3.611 10.709 5.92 28.714 5.92 42.224-84.3 24.808-385.858 103.876-591.227 156.957l-485.091-11.446c-6.951 0.025-13.657 1.4-19.773 4.446l-226.101 113.824v-461.904c267.882-119.375 680.98-299.667 731.972-311.874zM1916.073 321.858c-132.074 0-239.537 107.462-239.537 239.537s107.462 239.537 239.537 239.537 239.537-107.462 239.537-239.537c0-132.074-107.462-239.537-239.537-239.537zM1916.073 717.417c-86.019 0-156.023-69.98-156.023-156.023s70.004-156.023 156.023-156.023 156.023 70.004 156.023 156.023-70.004 156.023-156.023 156.023z" />
<glyph unicode="&#xe915;" glyph-name="SS_Interface_info" horiz-adv-x="253" d="M192.328-64h-131.267c-15.225 0-27.563 12.355-27.563 27.563v526.463c0 15.225 12.339 27.563 27.563 27.563h131.283c15.209 0 27.563-12.339 27.563-27.563v-526.463c0-15.209-12.355-27.563-27.58-27.563zM88.625-8.857h76.14v471.32h-76.14v-471.32zM126.679 706.627c-69.849 0-126.679 56.829-126.679 126.679 0 69.865 56.829 126.695 126.679 126.695 69.865 0 126.695-56.829 126.695-126.695 0.016-69.849-56.829-126.679-126.695-126.679zM126.679 904.873c-39.448 0-71.552-32.103-71.552-71.568s32.087-71.552 71.552-71.552 71.568 32.087 71.568 71.552-32.103 71.568-71.568 71.568z" />
<glyph unicode="&#xe916;" glyph-name="SS_Interface_filter" horiz-adv-x="1202" d="M476.713-64c-7.773 0-15.474 2.241-22.174 6.604-11.445 7.463-18.359 20.243-18.359 33.928v480.861l-424.616 433.7c-11.397 11.683-14.711 29.041-8.393 44.061 6.318 15.045 21.053 24.844 37.362 24.844h1120.587c16.499 0 31.353-10.014 37.552-25.297 6.223-15.307 2.503-32.808-9.323-44.324l-454.491-441.378v-377.074c0-16.094-9.513-30.662-24.272-37.123l-217.613-95.371c-5.198-2.289-10.753-3.433-16.261-3.433zM136.953 878.935l368.729-376.621c7.415-7.582 11.564-17.763 11.564-28.349v-435.369l136.548 59.845v367.703c0 10.944 4.459 21.435 12.303 29.088l395.123 383.702h-924.266z" />
<glyph unicode="&#xe917;" glyph-name="SS_Interface_inseraterstellen" d="M597.126-64v0l-170.337 0.042c-19.735 0-35.767 16.032-35.767 35.767v355.255h-355.255c-9.489 0-18.578 3.787-25.29 10.478-6.712 6.733-10.478 15.822-10.478 25.311l0.042 170.358c0 19.735 16.032 35.767 35.767 35.767h355.234v355.255c0 19.756 16.011 35.767 35.767 35.767h170.358c19.735 0 35.767-16.011 35.767-35.767v-355.276h355.276c19.735 0 35.767-16.011 35.767-35.767v-170.379c0-9.489-3.787-18.599-10.478-25.29-6.712-6.691-15.801-10.478-25.29-10.478v0l-355.276 0.042-0.042-355.318c0-9.489-3.787-18.599-10.478-25.29-6.712-6.712-15.78-10.478-25.29-10.478zM462.578 7.556l98.781-0.021 0.042 355.318c0 9.489 3.787 18.599 10.478 25.29 6.712 6.691 15.801 10.478 25.29 10.478v0l355.276-0.042v98.844h-355.276c-19.735 0-35.767 16.011-35.767 35.767v355.276h-98.823v-355.276c0-19.756-16.011-35.767-35.767-35.767h-355.234l-0.042-98.802h355.276c19.756 0 35.767-16.032 35.767-35.767v-355.297z" />
<glyph unicode="&#xe918;" glyph-name="SS_Interface_scroll-backward" horiz-adv-x="697" d="M512.037-64c-11.227 0-21.981 4.481-29.922 12.397l-469.718 469.693c-16.529 16.529-16.529 43.315 0 59.844l469.668 469.668c16.529 16.529 43.315 16.529 59.844 0l142.541-142.466c7.916-7.916 12.397-18.695 12.397-29.922s-4.481-21.981-12.397-29.922l-297.255-297.255 297.255-297.23c16.529-16.529 16.529-43.315 0-59.844l-142.491-142.566c-7.916-7.941-18.695-12.397-29.922-12.397zM102.163 448.012l409.874-409.849 82.622 82.697-297.255 297.23c-7.941 7.941-12.397 18.72-12.397 29.947s4.456 21.981 12.397 29.922l297.255 297.255-82.672 82.622-409.824-409.824z" />
<glyph unicode="&#xe919;" glyph-name="SS_Interface_scroll-forward" horiz-adv-x="697" d="M184.81-64c0 0 0 0 0 0-11.227 0-22.006 4.481-29.947 12.397l-142.441 142.541c-16.529 16.529-16.504 43.315 0 59.844l297.23 297.23-297.255 297.28c-7.941 7.916-12.397 18.695-12.397 29.922s4.481 22.006 12.422 29.922l142.541 142.491c16.504 16.504 43.315 16.529 59.844 0l469.643-469.668c16.529-16.529 16.529-43.315 0-59.844l-469.718-469.718c-7.916-7.916-18.695-12.397-29.922-12.397zM102.188 120.885l82.647-82.697 409.824 409.849-409.799 409.799-82.672-82.647 297.255-297.23c16.529-16.529 16.529-43.315 0-59.844l-297.255-297.23z" />
<glyph unicode="&#xe91a;" glyph-name="SS_Interface_back(1)" horiz-adv-x="1655" d="M468.017-64c-10.262 0-20.091 4.096-27.35 11.331l-429.336 429.291c-15.108 15.108-15.108 39.591 0 54.699l429.291 429.314c15.108 15.108 39.591 15.108 54.699 0l130.309-130.218c7.258-7.258 11.331-17.088 11.354-27.35 0-10.262-4.073-20.114-11.331-27.372l-136.999-136.999 679.193-3.8 188.217 402.806c6.348 13.607 20.023 22.298 35.040 22.298h225.533c13.265 0 25.62-6.803 32.72-18.021 7.099-11.24 7.941-25.302 2.23-37.293l-293.202-615.392c-6.439-13.516-20.41-21.502-35.040-22.048l-835.214 2.526 137.477-137.454c15.108-15.108 15.108-39.591 0-54.699l-130.264-130.309c-7.236-7.213-17.065-11.309-27.327-11.309zM93.38 403.972l374.614-374.591 75.564 75.587-176.454 176.431c-11.081 11.081-14.38 27.759-8.373 42.208 6.007 14.426 20.091 23.823 35.723 23.823 0.023 0 0.068 0 0.114 0l904.498-2.753 256.296 537.962h-139.638l-188.308-402.897c-6.348-13.607-20.023-22.298-35.040-22.298-0.068 0-0.137 0-0.228 0l-796.601 4.437c-15.609 0.091-29.625 9.534-35.564 23.982-5.939 14.426-2.617 31.013 8.419 42.049l175.157 175.157-75.564 75.519-374.614-374.614z" />
</font>
</defs>
</svg>
