<?xml version="1.0" encoding="utf-8"?>
<!-- Generator: Adobe Illustrator 15.1.0, SVG Export Plug-In . SVG Version: 6.00 Build 0)  -->
<!DOCTYPE svg PUBLIC "-//W3C//DTD SVG 1.1//EN" "http://www.w3.org/Graphics/SVG/1.1/DTD/svg11.dtd">
<svg version="1.1" xmlns="http://www.w3.org/2000/svg" xmlns:xlink="http://www.w3.org/1999/xlink" x="0px" y="0px"
	 width="441.21px" height="600.68px" viewBox="0 0 441.21 600.68" enable-background="new 0 0 441.21 600.68" xml:space="preserve">
<g id="leihen" display="none">
	<g display="inline">
		<path fill="#8B8C8C" d="M220.79,563.31c-145.16,0-263.25-118.1-263.25-263.24c0-145.16,118.1-263.26,263.25-263.26
			s263.25,118.1,263.25,263.26C484.04,445.22,365.95,563.31,220.79,563.31z M220.79,70.81C94.38,70.81-8.46,173.66-8.46,300.07
			c0,126.41,102.84,229.24,229.25,229.24c126.41,0,229.25-102.83,229.25-229.24C450.04,173.66,347.2,70.81,220.79,70.81z"/>
		<path fill="#8B8C8C" d="M218.63,348c-4.38,0-8.76-1.69-12.09-5.05l-97.15-98.25c-6.6-6.67-6.54-17.44,0.14-24.04
			c6.68-6.6,17.44-6.54,24.04,0.14l85.22,86.19l54.5-53.61c6.7-6.57,17.46-6.49,24.04,0.2c6.58,6.69,6.49,17.46-0.2,24.04
			l-66.59,65.51C227.24,346.37,222.93,348,218.63,348z"/>
		<path fill="#8B8C8C" d="M222.93,120.18c-9.39,0-17-7.61-17-17V60.03c0-9.39,7.61-17,17-17s17,7.61,17,17v43.14
			C239.93,112.57,232.32,120.18,222.93,120.18z"/>
		<path fill="#8B8C8C" d="M19.99,317.06h-45.45c-9.39,0-17-7.62-17-17c0-9.39,7.61-17,17-17h45.45c9.39,0,17,7.61,17,17
			C36.99,309.45,29.38,317.06,19.99,317.06z"/>
		<path fill="#8B8C8C" d="M464.29,316.48h-43.7c-9.38,0-17-7.62-17-17c0-9.39,7.62-17,17-17h43.7c9.38,0,17,7.61,17,17
			C481.3,308.86,473.68,316.48,464.29,316.48z"/>
		<path fill="#8B8C8C" d="M220.78,557.96c-9.39,0-17-7.62-17-17V492.4c0-9.38,7.61-17,17-17s17,7.62,17,17v48.56
			C237.78,550.35,230.17,557.96,220.78,557.96z"/>
	</g>
</g>
<g id="freizeit" display="none">
	<g display="inline">
		<path fill="#8B8C8C" d="M375.42,545.32c-2.16,0-4.34-0.41-6.42-1.26c-6.32-2.57-10.48-8.66-10.59-15.48
			c-0.01-0.55-1.18-40.14-29.73-68.68c-27.08-27.08-82.89-39.78-83.46-39.9c-8.08-1.8-13.69-9.16-13.29-17.42
			c0.01-0.32,1.2-41.92-31.28-76.83c-35.76-38.43-86.49-40.16-87-40.18c-4.8-0.12-9.32-2.27-12.45-5.9s-4.58-8.43-3.98-13.19
			c0.2-1.7,4.62-44.12-27.99-76.71c-25.13-25.13-53.91-28.88-68.83-28.88c-4.87,0-7.8,0.42-7.83,0.42
			c-7.21,1.03-14.42-2.64-17.71-9.19c-3.29-6.55-2.07-14.46,3.12-19.64C26.52,83.96,103.94,55,185.11,55
			c80.5,0,152.36,27.53,202.35,77.52c51.79,51.8,81.05,126.92,80.29,206.11c-0.74,77.9-30.02,151.42-80.31,201.71
			C384.19,543.59,379.84,545.32,375.42,545.32z M265.3,390.14c20.79,6.01,62.13,20.42,87.43,45.72
			c17.48,17.48,27.27,37.6,32.73,54.57c30.45-41.8,47.74-95.56,48.29-152.13c0.67-70.12-24.96-136.36-70.34-181.74
			c-43.57-43.57-106.89-67.57-178.31-67.57c-56.43,0-110.49,15.36-151.61,42.19c18.5,4.84,40.01,14.77,59.79,34.54
			c30.3,30.29,36.97,66.7,38.04,87.73c22.32,3.76,62.56,15.1,94.24,49.14C255.46,334.72,263.31,370.75,265.3,390.14z"/>
		<path fill="#8B8C8C" d="M375.5,161.61c-4.36,0-8.7-1.66-12.02-4.98c-6.64-6.64-6.64-17.4,0-24.04l38.01-38.01
			c6.64-6.64,17.4-6.64,24.04,0s6.64,17.4,0,24.04l-38.01,38.01C384.2,159.95,379.85,161.61,375.5,161.61z"/>
		<path fill="#8B8C8C" d="M18.46,518.64c-4.35,0-8.7-1.66-12.02-4.98c-6.64-6.64-6.64-17.4,0-24.04l186.64-186.64
			c6.64-6.64,17.4-6.64,24.04,0s6.64,17.4,0,24.04L30.49,513.66C27.17,516.98,22.82,518.64,18.46,518.64z"/>
		<path fill="#8B8C8C" d="M252.6,415.63c-4.36,0-8.7-1.66-12.02-4.98c-6.64-6.64-6.64-17.4,0-24.04
			c133.27-133.27,118.26-238.22,118.1-239.27c-1.47-9.23,4.77-17.97,13.97-19.51c9.26-1.52,17.94,4.59,19.54,13.79
			c0.86,4.92,19.28,122.18-127.57,269.03C261.3,413.97,256.95,415.63,252.6,415.63z"/>
		<path fill="#8B8C8C" d="M129.99,271.66c-4.35,0-8.7-1.66-12.02-4.98c-6.64-6.64-6.64-17.4,0-24.04
			c139.36-139.37,259.77-112.43,264.85-111.21c9.12,2.19,14.75,11.37,12.56,20.5c-2.19,9.12-11.29,14.78-20.51,12.56
			c-4.24-0.96-107.86-22.8-232.86,102.19C138.69,270,134.34,271.66,129.99,271.66z"/>
	</g>
</g>
<g id="kauf_x2F_verkauf" display="none">
	<g display="inline">
		<path fill="#8B8C8C" d="M242.71,568.55c-0.45,0-0.89-0.02-1.34-0.06c-54.02-4.26-181.62-18.37-199.64-57.29
			c-12.94-27.95,36.17-116.53,79.64-185.92c1.75-2.79,4.27-5.02,7.27-6.41l244.28-113.02c8.51-3.95,18.62-0.24,22.57,8.29
			l101.65,219.65c3.95,8.52,0.23,18.62-8.29,22.57l-239,110.62C247.61,568.01,245.17,568.55,242.71,568.55z M73.05,497.57
			c10.38,13.13,86.64,29.98,166.58,36.67l219.51-101.6l-87.37-188.79L147.52,347.6C110.35,407.51,72.72,479.87,73.05,497.57z"/>
		<path fill="#8B8C8C" d="M160.72,509.13c-28.01,0-50.8-22.79-50.8-50.8s22.79-50.8,50.8-50.8s50.8,22.79,50.8,50.8
			S188.73,509.13,160.72,509.13z M160.72,441.54c-9.26,0-16.8,7.53-16.8,16.8s7.53,16.8,16.8,16.8s16.8-7.53,16.8-16.8
			S169.98,441.54,160.72,441.54z"/>
		<path fill="#8B8C8C" d="M115.38,458.62c-1.13,0-2.29-0.12-3.44-0.35c-7.55-1.55-184.73-39.39-168.33-164.01
			c11.32-86.04,67.04-88.42,116.2-90.52c39.57-1.69,80.49-3.44,115.68-39.59c21.84-22.42,25.81-43.59,11.8-62.91
			C166.31,72.3,116.37,58.43,94.41,69.2c-8.43,4.14-18.61,0.65-22.75-7.78S71,42.81,79.44,38.68
			c38.89-19.08,105.95,2.02,135.38,42.6c24.1,33.23,18.64,72.08-14.97,106.58c-44.61,45.82-96.72,48.05-138.58,49.84
			c-49.23,2.1-76.35,3.27-83.95,60.99C-35,392.28,117.24,424.64,118.78,424.96c9.2,1.88,15.12,10.87,13.23,20.07
			C130.36,453.08,123.28,458.62,115.38,458.62z"/>
	</g>
</g>
<g id="mfg" display="none">
	<g display="inline">
		<path fill="#8B8C8C" d="M533.3,431.38c-9.2,0-16.76-7.34-16.98-16.59c-0.22-9.38,7.2-17.18,16.58-17.4
			c23.55-0.58,48.78-3.46,56.48-6.34c8.76-14.61,7.95-55.42,4.43-80.55c-11.07-14.82-93.81-43.46-165.57-61.3
			c-3-0.75-5.74-2.29-7.92-4.48c-18.29-18.3-125.92-95.82-186.22-95.82c-7.09,0-19.43-0.34-35.15-0.77
			c-145.98-4.04-227.4-0.37-242.04,10.9c-52.15,40.12-83.75,99.46-84.07,100.05c-0.15,0.29-0.32,0.59-0.49,0.87
			c-13.35,22.14-25.43,47.34-25.86,53.94c0,4.19-0.3,10.43-0.68,17.73c-0.67,13.09-2.6,50.86,1.73,63.37
			c20.52,0.11,38.15,0.87,38.94,0.91c9.38,0.41,16.65,8.35,16.24,17.72c-0.41,9.38-8.49,16.48-17.72,16.24
			c-0.2-0.01-20.44-0.88-42.11-0.88c-7.19,0-13.96-2.95-19.04-8.31c-14.62-15.38-14.14-48.76-11.99-90.79
			c0.34-6.59,0.63-12.23,0.63-16.13c0-18.25,21.13-55.38,30.5-70.95c3.48-6.51,36.93-67.45,93.18-110.72
			c26.37-20.28,120.47-21.9,263.71-17.94c15.3,0.42,27.31,0.76,34.21,0.76c72.04,0,180.14,78.79,206.61,102.37
			c119.77,30.08,182.51,59.31,186.54,86.89c1.93,13.14,10.47,80.33-12.22,109.48c-3.43,4.39-12.51,16.06-81.33,17.72
			C533.58,431.38,533.43,431.38,533.3,431.38z"/>
		<path fill="#8B8C8C" d="M471.82,488.25c-41.33,0-74.95-33.63-74.95-74.96s33.62-74.96,74.95-74.96
			c41.34,0,74.97,33.63,74.97,74.96S513.16,488.25,471.82,488.25z M471.82,372.33c-22.58,0-40.95,18.37-40.95,40.96
			s18.37,40.96,40.95,40.96c22.59,0,40.97-18.37,40.97-40.96S494.41,372.33,471.82,372.33z"/>
		<path fill="#8B8C8C" d="M-53.53,488.25c-41.34,0-74.97-33.63-74.97-74.96s33.63-74.96,74.97-74.96s74.97,33.63,74.97,74.96
			S-12.19,488.25-53.53,488.25z M-53.53,372.33c-22.59,0-40.97,18.37-40.97,40.96s18.38,40.96,40.97,40.96s40.97-18.37,40.97-40.96
			S-30.94,372.33-53.53,372.33z"/>
		<path fill="#8B8C8C" d="M411.43,430.29H5.57c-9.39,0-17-7.62-17-17s7.61-17,17-17h405.86c9.38,0,17,7.62,17,17
			S420.82,430.29,411.43,430.29z"/>
		<path fill="#8B8C8C" d="M335.3,267.01H66.02c-8.78,0-16.23-5.96-18.12-14.49c-4.31-19.46,37.08-68.98,49.18-74.62
			c6.13-2.85,17.71-6.11,53.3-6.11c35.8,0,80.96,3.27,100.25,4.67l3.62,0.26c15.09,1.08,105.49,42.03,104.46,71
			C358.46,254.88,353.25,267.01,335.3,267.01z M91.7,233.01h206.58c-18-10.77-39.1-21.43-46.57-22.39l-3.53-0.25
			c-18.92-1.37-63.22-4.58-97.79-4.58c-27.55,0-36.29,2.07-38.45,2.76C107.65,211.9,98.84,222.86,91.7,233.01z"/>
	</g>
</g>
<g id="dienstleistung" display="none">
	<g display="inline">
		<path fill="#FFFFFF" d="M224.96,162.71l22.19-28.76l-44.91-34.58l-23.54,30.5c-12.13-5.28-25.06-8.73-38.38-10.32l-4.43-41.38
			l-56.34,6.06l4.29,40.18c-3.92,1.15-7.81,2.51-11.63,4.03c-9.99,4-19.28,9.21-27.9,15.24l-30.52-27.04l-37.63,42.42l29.43,26.07
			c-3.33,5.53-6.45,11.22-9.02,17.25c-2.7,6.34-4.74,12.82-6.48,19.39l-38.95-0.28l-0.41,56.65l36.54,0.31
			c1.6,10.03,4.25,19.97,8.13,29.64c1.66,4.16,3.53,8.16,5.54,12.09l-30.52,25.72l36.53,43.33l29.79-25.09
			c13.3,10.78,28.48,19,44.75,24.23l178.04-171.16c0,0-5.27-6.04-7.66-11.96C245.41,189.12,236.16,174.85,224.96,162.71z
			 M138.75,294.4c-21.19,8.47-44.52-2.05-52.74-22.61c-4.04-10.07-3.94-21.09,0.33-31.06c4.24-9.95,12.13-17.65,22.18-21.68
			c2.24-0.89,4.48-1.58,6.76-2.04c19.33-4.12,38.68,6.22,46.02,24.56C169.64,262.35,159.53,286.04,138.75,294.4z"/>
		<path fill="#8B8C8C" d="M6.97,406.25c-4.84,0-9.65-2.06-13.01-6.04l-36.53-43.33c-2.91-3.45-4.33-7.91-3.95-12.4
			c0.39-4.49,2.54-8.64,5.99-11.55l20.61-17.37c-0.16-0.38-0.3-0.76-0.46-1.14c-2.46-6.11-4.53-12.49-6.2-19.05l-22.83-0.2
			c-9.38-0.08-16.92-7.74-16.86-17.13l0.41-56.65c0.04-4.5,1.86-8.82,5.07-11.98c3.18-3.13,7.47-4.89,11.93-4.89
			c0.04,0,0.08,0,0.13,0l26.23,0.2c1.07-3.13,2.21-6.09,3.43-8.96c0.98-2.29,2.03-4.57,3.2-6.9l-19.24-17.04
			c-3.38-2.99-5.43-7.2-5.7-11.7c-0.26-4.5,1.26-8.94,4.26-12.3l37.63-42.42c6.22-7.01,16.96-7.66,23.98-1.45l20.91,18.53
			c6.41-3.74,12.94-6.96,19.54-9.63l-2.86-26.78c-1-9.34,5.75-17.71,15.09-18.71l56.34-6.06c4.49-0.43,8.98,0.84,12.48,3.67
			c3.52,2.82,5.76,6.93,6.24,11.43l3.06,28.52c5.82,1.21,11.52,2.74,17.11,4.61l15.82-20.51c5.74-7.42,16.42-8.8,23.83-3.08
			l44.91,34.58c3.57,2.75,5.91,6.81,6.48,11.28c0.59,4.48-0.64,9-3.4,12.57l-13.83,17.93c8.62,11.24,15.62,23.54,20.89,36.68
			c0.9,2.24,3.54,5.79,4.69,7.11c5.96,6.83,5.51,17.14-1.04,23.43L93.28,400.64c-4.5,4.33-11.05,5.86-16.97,3.93
			c-13.83-4.43-26.85-10.73-38.85-18.78L17.9,402.25C14.72,404.94,10.83,406.25,6.97,406.25z M36.75,347.15
			c3.79,0,7.58,1.26,10.7,3.8c9.13,7.4,19.16,13.37,29.91,17.82l57.86-55.62c-3.83,0.79-7.71,1.19-11.62,1.19
			c-23.62,0-44.58-14.23-53.38-36.23c-5.73-14.28-5.57-29.94,0.49-44.07c6-14.09,17.18-25.03,31.47-30.77
			c3.29-1.31,6.54-2.29,9.73-2.92c3.78-0.81,7.83-1.24,11.87-1.24c23.59,0,44.51,14.19,53.29,36.15
			c4.69,11.65,5.26,23.96,2.43,35.32l58.04-55.8c-0.52-1.04-1-2.09-1.44-3.17c-5.52-13.78-13.47-26.34-23.64-37.36
			c-5.62-6.09-6.04-15.35-0.97-21.91l11.79-15.29l-17.97-13.84l-13.16,17.06c-4.77,6.15-13.11,8.31-20.24,5.2
			c-10.53-4.58-21.83-7.62-33.61-9.03c-7.86-0.94-14.03-7.19-14.88-15.07l-2.62-24.46l-22.54,2.43l2.48,23.28
			c0.87,8.17-4.22,15.79-12.11,18.12c-3.41,1.01-6.8,2.19-10.13,3.52c-8.27,3.31-16.5,7.82-24.45,13.38
			c-6.44,4.52-15.13,4.01-21.02-1.2l-17.8-15.77L0.16,157.62l16.7,14.79c6.14,5.44,7.52,14.47,3.29,21.49
			c-3.46,5.74-5.99,10.56-7.96,15.17c-2.07,4.88-3.89,10.32-5.68,17.07c-1.98,7.45-8.72,12.64-16.43,12.64c-0.04,0-0.08,0-0.13,0
			l-21.94-0.17l-0.17,22.68l19.57,0.17c8.3,0.08,15.33,6.12,16.64,14.33c1.46,9.09,3.85,17.83,7.12,25.98
			c1.47,3.7,3.12,7.22,4.89,10.67c3.61,7.05,1.88,15.65-4.17,20.75l-17.52,14.77L9.01,365.3l16.8-14.15
			C28.96,348.49,32.86,347.15,36.75,347.15z M123.78,233.11c-1.65,0-3.32,0.18-4.96,0.53c-1.47,0.29-2.75,0.7-4.02,1.21
			c-5.79,2.32-10.36,6.79-12.81,12.54c-2.49,5.8-2.55,12.21-0.21,18.07c4.76,11.88,18.56,18,30.66,13.15
			c12.04-4.84,17.93-18.62,13.08-30.7C141.92,238.9,133.39,233.11,123.78,233.11z"/>
	</g>
	<g display="inline">
		<path fill="#FFFFFF" d="M465.93,132.12l-72.44,61.23l-41.56-2.39l-10.47-40.47l69.38-61.22l-21.66-25
			c0,0-89.32,12.13-112.05,40.06c-46.13,56.64-19,112.69-19,112.69L3.98,469.69c0,0-17.09,35.24,8.55,55.77
			c24.41,19.53,62.27,3.66,62.27,3.66l254.14-250.69c0,0,63.87,31.17,122.83-27.83c22.42-22.43,40.04-96.64,40.04-96.64
			L465.93,132.12z"/>
		<path fill="#8B8C8C" d="M43.45,552.21c-16.39,0-30.37-4.53-41.53-13.48c-28.67-22.94-21.19-60.05-13.23-76.46
			c0.83-1.72,1.95-3.28,3.31-4.63l246.43-245.03c-6.57-21.76-14.2-70.26,25.52-119.02c25.67-31.54,106.92-43.99,122.95-46.17
			c5.64-0.8,11.38,1.38,15.14,5.71l21.66,25c6.1,7.05,5.39,17.71-1.6,23.88l-61.55,54.32l4.75,18.37l22.42,1.29l67.26-56.86
			c6.34-5.34,15.61-5.36,21.94,0l25.88,21.85c4.9,4.13,7.05,10.67,5.58,16.91c-1.92,8.08-19.45,79.62-44.56,104.74
			c-33.9,33.92-69.61,41.04-93.6,41.04l0,0c-15.55,0-28.41-2.85-37.03-5.51L86.73,541.23c-1.54,1.52-3.36,2.74-5.36,3.57
			C79.56,545.56,63.15,552.21,43.45,552.21z M18.33,479.39c-2.31,6.16-7.22,23.16,4.82,32.8c4.99,3.99,11.82,6.02,20.29,6.02
			c9.22,0,17.79-2.38,22.05-3.79l251.5-248.09c5.13-5.08,12.92-6.35,19.38-3.17c0.05,0.01,14.02,6.5,33.8,6.5
			c25.55,0,48.95-10.46,69.56-31.08c12.26-12.26,25.62-51.08,32.97-78.49l-6.78-5.72l-61.47,51.95c-3.33,2.82-7.65,4.25-11.95,3.99
			l-41.56-2.39c-7.37-0.43-13.63-5.57-15.48-12.71L325,154.74c-1.6-6.2,0.41-12.77,5.21-17l56.75-50.08l-4.5-5.2
			c-34.1,5.62-80.49,18.26-92.15,32.59c-38.35,47.09-17.73,92.73-16.84,94.65c3.04,6.49,1.72,14.31-3.37,19.36L18.33,479.39z"/>
	</g>
</g>
<g id="Inserat_x5F_erstellen" display="none">
	<path display="inline" fill="#8B8C8C" d="M261.23,542.83L261.23,542.83l-80.96-0.02c-9.38,0-17-7.62-17-17V356.95H-5.58
		c-4.51,0-8.83-1.8-12.02-4.98c-3.19-3.19-4.98-7.52-4.98-12.02l0.02-80.97c0-9.38,7.62-17,17-17h168.84V73.13c0-9.39,7.61-17,17-17
		h80.97c9.38,0,17,7.61,17,17v168.86h168.86c9.38,0,17,7.61,17,17v80.98c0,4.51-1.8,8.84-4.98,12.02
		c-3.19,3.18-7.51,4.98-12.02,4.98l0,0l-168.86-0.02l-0.02,168.88c0,4.51-1.8,8.84-4.98,12.02
		C270.05,541.03,265.74,542.83,261.23,542.83z M197.28,508.81l46.95,0.01l0.02-168.88c0-4.51,1.8-8.84,4.98-12.02
		c3.19-3.18,7.51-4.98,12.02-4.98l0,0l168.86,0.02v-46.98H261.25c-9.38,0-17-7.61-17-17V90.13h-46.97v168.86c0,9.39-7.61,17-17,17
		H11.43l-0.01,46.96h168.86c9.39,0,17,7.62,17,17V508.81z"/>
</g>
<g id="Suchen" display="none">
	<g display="inline">
		<g>
			<path fill="#FFFFFF" d="M197.11,260.68L-31.24,487.75c0,0-17.11,35.23,8.55,55.76c24.41,19.53,62.27,3.67,62.27,3.67
				l222.76-219.75"/>
			<path fill="#8B8C8C" d="M8.19,570.19c-13.55,0-28.63-3.12-41.49-13.41c-28.69-22.94-21.2-60.05-13.23-76.46
				c0.83-1.72,1.95-3.29,3.31-4.63l228.35-227.08c6.66-6.61,17.43-6.59,24.04,0.07c6.62,6.66,6.59,17.42-0.07,24.04L-16.88,497.45
				c-2.32,6.15-7.23,23.15,4.82,32.79c12.97,10.37,34.79,4.67,42.37,2.21L250.4,315.34c6.69-6.6,17.45-6.53,24.04,0.16
				c6.59,6.69,6.52,17.45-0.16,24.04L51.52,559.29c-1.54,1.52-3.37,2.74-5.37,3.58C45,563.35,28.27,570.19,8.19,570.19z"/>
		</g>
		<g>
			<path fill="#FFFFFF" d="M478.26,228.33c0,100.83-81.74,182.56-182.58,182.56c-100.82,0-182.57-81.74-182.57-182.56
				c0-100.84,81.76-182.59,182.57-182.59C396.52,45.75,478.26,127.49,478.26,228.33z"/>
			<path fill="#8B8C8C" d="M295.68,427.9c-110.04,0-199.58-89.52-199.58-199.57c0-110.05,89.53-199.59,199.58-199.59
				c110.05,0,199.58,89.54,199.58,199.59C495.26,338.38,405.73,427.9,295.68,427.9z M295.68,62.75
				c-91.3,0-165.57,74.28-165.57,165.59c0,91.29,74.27,165.56,165.57,165.56s165.58-74.27,165.58-165.56
				C461.26,137.03,386.98,62.75,295.68,62.75z"/>
		</g>
	</g>
</g>
<g id="Kategorie_x2F_Filter" display="none">
	<path display="inline" fill="#8B8C8C" d="M169.32,514.55c-3.26,0-6.49-0.94-9.3-2.77c-4.8-3.13-7.7-8.49-7.7-14.23V295.87
		l-178.09-181.9c-4.79-4.89-6.18-12.17-3.52-18.48c2.65-6.31,8.83-10.42,15.67-10.42h469.99c6.92,0,13.15,4.2,15.75,10.61
		c2.61,6.42,1.05,13.76-3.91,18.59L277.6,299.39v158.15c0,6.75-3.99,12.86-10.18,15.57l-91.27,40
		C173.96,514.07,171.64,514.55,169.32,514.55z M26.82,119.08l154.65,157.96c3.11,3.18,4.85,7.45,4.85,11.89v182.6l57.27-25.1V292.21
		c0-4.59,1.87-8.99,5.16-12.2l165.72-160.93H26.82z"/>
</g>
<g id="Give" display="none">
	<path display="inline" fill="#8B8C8C" d="M543.74,508.71c-0.31,0-0.63-0.01-0.97-0.03c-166.63-9.36-418.72-23.26-430.22-23.27
		c-13,0-120.86-45.21-320.57-134.38c-6.13-2.73-10.07-8.82-10.07-15.53V108.82c0-5.9,3.06-11.38,8.09-14.47
		c5.02-3.1,11.29-3.35,16.56-0.71l112.91,56.85l195.6-4.61c1.59,0.02,3.13,0.15,4.65,0.54c23.8,6.15,233.15,60.31,254.14,67.98
		c16.73,6.12,15.34,31.01,13.02,45.29c-4.87,30-20.06,34.9-28.67,35.15l-126.83,3.71l105.9,48.4
		c200.77,37.68,206.45,41.78,210.21,44.5c5.51,3.97,20.2,14.55,13.18,101.63C559.96,501.94,552.54,508.71,543.74,508.71z
		 M113.91,451.44c26.81,0.72,330.92,17.71,413.9,22.35c1.05-23.43,0.36-45.37-1.8-54.43c-25.14-6.46-130.9-26.97-197.05-39.38
		c-1.36-0.25-2.68-0.67-3.94-1.25l-174.12-79.58c-7.19-3.29-11.16-11.09-9.59-18.84s8.26-13.39,16.16-13.62l194.31-5.69
		c1.47-4.36,2.41-11.69,2.41-17.19c-34.32-10.1-157.09-42.29-240.7-63.9l-197.49,4.66c-2.83-0.01-5.56-0.57-8.05-1.81l-92.06-46.35
		v188.05C-75.03,373.07,93.15,446.46,113.91,451.44z"/>
	<path display="inline" fill="#8B8C8C" d="M561.98,351.62c-53.77,0-97.52-43.75-97.52-97.52c0-53.77,43.75-97.52,97.52-97.52
		s97.52,43.75,97.52,97.52C659.5,307.87,615.75,351.62,561.98,351.62z M561.98,190.58c-35.02,0-63.52,28.49-63.52,63.52
		s28.5,63.52,63.52,63.52s63.52-28.5,63.52-63.52S597,190.58,561.98,190.58z"/>
</g>
<g id="Take" display="none">
	<path display="inline" fill="#8B8C8C" d="M-89.98,406.16c-26.88,0-62.61-5.46-64.12-5.68c-5.19-0.8-9.71-3.96-12.27-8.54
		c-2.55-4.59-2.85-10.09-0.79-14.92l92.49-217.65c1.5-3.53,4.15-6.45,7.52-8.28C0.74,114.16,117.86,52.2,139.46,52.2
		c13.02,0,107.94,7.67,221.34,16.94c35.82,2.92,69.83,5.7,78.6,6.32c14.82-4.36,97.29-34.88,147.93-53.91
		c5.21-1.96,11.07-1.24,15.65,1.94c4.59,3.17,7.32,8.4,7.32,13.97v208.78c0,6.83-4.08,12.99-10.37,15.65l-221.81,93.94
		c-1.92,0.82-3.98,1.27-6.08,1.34l-285.03,9.23c-8.86,0.57-16.42-6.25-17.44-15.03c-8.25-70.88,13.28-76.45,20.35-78.28
		c45.22-11.71,82.25-26.3,110.35-39.57L37.71,246.49C20.1,275.85-43.39,381.72-49.44,392.18
		C-56.55,404.47-73.12,406.16-89.98,406.16z M-127.09,369.69c11.44,1.26,25.44,2.47,37.11,2.47c7.07,0,11.17-0.45,13.36-0.83
		c15.01-25.39,86.45-144.44,89.69-149.83c2.82-4.71,7.75-7.76,13.22-8.2l246.76-19.67c7.48-0.52,14.51,3.82,17.22,10.85
		s0.45,15-5.53,19.59c-2.68,2.05-66.05,49.93-181.37,80.65c-1.25,5.35-1.68,15.84-1.21,27.18l265.64-8.59l208.52-88.32V62
		c-127.14,47.58-131.9,47.58-135.45,47.58c-2.32,0-13.94-0.92-82.83-6.55c-77-6.29-205.88-16.82-218.57-16.82
		c-13.7,2.23-104.15,48-185.16,91.93L-127.09,369.69z"/>
	<path display="inline" fill="#8B8C8C" d="M57.46,580.02c-53.77,0-97.52-43.75-97.52-97.52s43.75-97.52,97.52-97.52
		s97.52,43.75,97.52,97.52S111.23,580.02,57.46,580.02z M57.46,418.98c-35.02,0-63.52,28.5-63.52,63.52s28.49,63.52,63.52,63.52
		s63.52-28.5,63.52-63.52S92.49,418.98,57.46,418.98z"/>
</g>
<g id="Bewertung_x5F_Gut" display="none">
	<path display="inline" fill="#8B8C8C" d="M-41.66,587.55c-3.85,0-7.63-1.31-10.67-3.77c-4-3.23-6.33-8.1-6.33-13.23V346.93
		c0-8.09,5.7-15.05,13.62-16.66l165-33.49l70.62-104.17l67.17-168.37c2.13-5.33,6.79-9.22,12.41-10.36
		c5.61-1.16,11.44,0.63,15.46,4.7l60.02,60.65c3.92,3.96,5.64,9.57,4.64,15.03l-22.5,122.22l135.39,13.61
		c2.06,0.21,4.05,0.79,5.91,1.71l21.41,10.7c6.82,3.41,10.54,10.95,9.08,18.44l-8.32,42.86c-0.81,4.17-3.15,7.89-6.56,10.42
		l-2.88,2.14l7.18,11.49c2.29,3.68,3.1,8.11,2.25,12.35l-6.33,31.46c-0.59,2.91-1.92,5.62-3.89,7.85l-11.33,12.93l10.16,14.11
		c2.88,4,3.88,9.04,2.74,13.84l-5.76,24.38c-0.88,3.75-3.02,7.08-6.04,9.46l-10.7,8.41l6.94,14.87c2.37,5.1,2.08,11.04-0.8,15.88
		l-23.44,39.42c-3.06,5.15-8.61,8.31-14.61,8.31H174.84l-212.92,46.01C-39.26,587.42-40.46,587.55-41.66,587.55z M-24.66,360.83
		v188.65l194.1-41.94c1.18-0.25,2.38-0.38,3.59-0.38H418.5l13.9-23.38l-8.84-18.96c-3.34-7.16-1.3-15.67,4.91-20.56l16.63-13.07
		l2.61-11.05l-13.52-18.78c-4.62-6.43-4.2-15.19,1.02-21.13l17.25-19.69l4.1-20.4l-11.91-19.07c-4.69-7.52-2.82-17.38,4.3-22.66
		l10.19-7.55l4.6-23.71l-7.06-3.54l-150.64-15.15c-4.73-0.47-9.04-2.91-11.89-6.7s-3.98-8.62-3.12-13.29l24.23-131.64l-35.52-35.9
		l-58.23,145.98c-0.45,1.14-1.03,2.23-1.72,3.24l-75.55,111.44c-2.5,3.68-6.33,6.23-10.69,7.12L-24.66,360.83z"/>
</g>
<g id="Bewertung_x5F_Schlecht" display="none">
	<path display="inline" fill="#8B8C8C" d="M274.37,566.55c-1.12,0-2.26-0.12-3.38-0.34c-5.62-1.14-10.28-5.04-12.41-10.36
		l-67.85-170.1l-69.53-102.53L-42.15,301.4c-4.77,0.56-9.61-1-13.22-4.23c-3.6-3.22-5.66-7.83-5.66-12.67V49.54
		c0-4.52,1.8-8.85,5-12.04c3.18-3.18,7.5-4.97,12-4.97c0.01,0,0.03,0,0.05,0l474.57,1.4c5.3,0.02,10.29,2.5,13.5,6.73l26.43,34.84
		c4.05,5.35,4.59,12.58,1.36,18.46l-7.88,14.34l12.52,16.43c2.26,2.96,3.48,6.58,3.48,10.3v30.57c0,2.94-0.77,5.84-2.23,8.4
		l-6.86,12.07l11.02,9.19c2.98,2.49,5.02,5.91,5.78,9.71l6.39,31.79c0.85,4.25,0.05,8.67-2.25,12.35l-7.34,11.75l3.05,2.25
		c3.42,2.53,5.75,6.25,6.56,10.42l8.38,43.29c1.46,7.49-2.27,15.03-9.09,18.44l-21.62,10.8c-1.85,0.93-3.85,1.5-5.9,1.71
		l-136.93,13.78l22.75,123.63c1.01,5.47-0.72,11.08-4.63,15.03l-60.61,61.27C283.22,564.76,278.86,566.55,274.37,566.55z
		 M129.51,248.18c5.59,0,10.88,2.76,14.06,7.46l76.33,112.55c0.69,1.02,1.27,2.1,1.72,3.24l58.92,147.71l36.11-36.5l-24.49-133.06
		c-0.86-4.67,0.27-9.49,3.12-13.29c2.85-3.79,7.17-6.22,11.89-6.7l152.19-15.31l7.29-3.64l-4.67-24.13l-10.34-7.66
		c-7.12-5.28-8.98-15.14-4.3-22.66l12.07-19.33l-3.88-19.3l-17.33-14.46c-6.32-5.27-7.96-14.31-3.89-21.46l11.66-20.51v-20.34
		l-15.74-20.66c-4.07-5.35-4.61-12.6-1.38-18.49l7.89-14.36l-14.68-19.36l-449.1-1.32V265.5l154.65-17.22
		C128.25,248.21,128.88,248.18,129.51,248.18z"/>
</g>
<g id="Menüburger" display="none">
	<path display="inline" fill="#8B8C8C" d="M446.94,197.34H-5.75c-9.39,0-17-7.61-17-17V99.37c0-9.39,7.61-17,17-17h452.69
		c9.38,0,17,7.61,17,17v80.97C463.94,189.73,456.32,197.34,446.94,197.34z M11.26,163.34h418.68v-46.96H11.26V163.34z"/>
	<path display="inline" fill="#8B8C8C" d="M446.94,357.34H-5.75c-9.39,0-17-7.62-17-17v-80.97c0-9.39,7.61-17,17-17h452.69
		c9.38,0,17,7.61,17,17v80.97C463.94,349.72,456.32,357.34,446.94,357.34z M11.26,323.34h418.68v-46.96H11.26V323.34z"/>
	<path display="inline" fill="#8B8C8C" d="M446.94,517.34H-5.75c-9.39,0-17-7.62-17-17v-80.97c0-9.38,7.61-17,17-17h452.69
		c9.38,0,17,7.62,17,17v80.97C463.94,509.72,456.32,517.34,446.94,517.34z M11.26,483.34h418.68v-46.96H11.26V483.34z"/>
</g>
<g id="Absenden" display="none">
	<path display="inline" fill="#8B8C8C" d="M662.7,493.27H156.33c-9.39,0-17-7.62-17-17V122.6c0-9.39,7.61-17,17-17H662.7
		c9.38,0,17,7.61,17,17v353.67C679.7,485.66,672.08,493.27,662.7,493.27z M173.33,459.27h472.36V139.6H173.33V459.27z"/>
	<path display="inline" fill="#8B8C8C" d="M409.51,346.9c-38.56,0-224.25-96.46-261.08-115.8c-8.32-4.37-11.51-14.64-7.15-22.95
		c4.37-8.31,14.65-11.51,22.95-7.15C269,256,389.4,312.89,409.51,312.89S550.02,256,654.79,200.99c8.31-4.35,18.58-1.16,22.95,7.15
		s1.16,18.59-7.15,22.95C633.77,250.44,448.08,346.9,409.51,346.9z"/>
	<path display="inline" fill="#8B8C8C" d="M43.46,424.38h-263.96c-9.39,0-17-7.62-17-17s7.61-17,17-17H43.46c9.39,0,17,7.62,17,17
		S52.85,424.38,43.46,424.38z"/>
	<path display="inline" fill="#8B8C8C" d="M43.46,316.44h-169.14c-9.39,0-17-7.61-17-17s7.61-17,17-17H43.46c9.39,0,17,7.61,17,17
		S52.85,316.44,43.46,316.44z"/>
	<path display="inline" fill="#8B8C8C" d="M43.46,213.05h-84.57c-9.39,0-17-7.61-17-17s7.61-17,17-17h84.57c9.39,0,17,7.61,17,17
		S52.85,213.05,43.46,213.05z"/>
</g>
<g id="TurnOff" display="none">
	<path display="inline" fill="#8B8C8C" d="M220.92,582.81c-145.16,0-263.25-118.1-263.25-263.24
		c0-145.16,118.1-263.26,263.25-263.26c145.15,0,263.25,118.1,263.25,263.26C484.17,464.72,366.07,582.81,220.92,582.81z
		 M220.92,90.31C94.51,90.31-8.33,193.16-8.33,319.57c0,126.41,102.84,229.24,229.25,229.24c126.4,0,229.24-102.83,229.24-229.24
		C450.16,193.16,347.32,90.31,220.92,90.31z"/>
	<g display="inline">
		<rect x="180.43" y="33.16" fill="#FFFFFF" width="80.97" height="200.32"/>
		<path fill="#8B8C8C" d="M261.4,250.48h-80.97c-9.39,0-17-7.61-17-17V33.16c0-9.39,7.61-17,17-17h80.97c9.38,0,17,7.61,17,17
			v200.32C278.4,242.87,270.79,250.48,261.4,250.48z M197.43,216.48h46.97V50.16h-46.97V216.48z"/>
	</g>
</g>
<g id="LogOut" display="none">
	<g display="inline">
		<path fill="#8B8C8C" d="M239.76,550.18h-350.87c-9.39,0-17-7.62-17-17V65.77c0-9.39,7.61-17,17-17h350.87c9.38,0,17,7.61,17,17
			v184.8c0,9.39-7.62,17-17,17s-17-7.61-17-17V82.77H-94.1v433.41h316.87V340.83c0-9.38,7.62-17,17-17s17,7.62,17,17v192.35
			C256.77,542.56,249.15,550.18,239.76,550.18z"/>
		<g>
			<polygon fill="#FFFFFF" points="553.66,299.47 496.41,242.21 364.99,110.8 307.73,168.03 399.2,259.49 101.76,259.2 
				101.76,332.86 406.13,334.75 307.74,430.88 364.97,488.15 496.41,356.71 			"/>
			<path fill="#8B8C8C" d="M364.97,505.15L364.97,505.15c-4.51,0-8.84-1.8-12.02-4.98l-57.23-57.27c-3.21-3.21-5.01-7.58-4.98-12.12
				s1.88-8.89,5.12-12.06l68.81-67.24l-263.02-1.63c-9.35-0.06-16.89-7.66-16.89-17V259.2c0-4.51,1.8-8.84,4.99-12.03
				c3.19-3.18,7.51-4.98,12.02-4.98c0,0,0.01,0,0.01,0l256.34,0.25l-62.4-62.39c-3.18-3.19-4.98-7.51-4.98-12.02
				c0-4.51,1.8-8.83,4.98-12.02l57.26-57.24c6.64-6.65,17.4-6.64,24.04,0l188.67,188.67c6.64,6.64,6.64,17.4,0,24.04L376.99,500.17
				C373.8,503.36,369.48,505.15,364.97,505.15z M331.92,431.03l33.05,33.08l164.65-164.64L364.99,134.83l-33.21,33.2l79.44,79.43
				c4.86,4.86,6.32,12.18,3.68,18.54c-2.64,6.35-8.83,10.49-15.7,10.49c-0.01,0-0.01,0-0.02,0l-280.42-0.28v39.75l287.48,1.79
				c6.89,0.05,13.08,4.25,15.65,10.63c2.58,6.4,1.04,13.71-3.88,18.53L331.92,431.03z"/>
		</g>
	</g>
</g>
<g id="Fehler" display="none">
	<g display="inline">
		<path fill="#8B8C8C" d="M260.91,443h-80.97c-9.39,0-17-7.62-17-17V-26.69c0-9.39,7.61-17,17-17h80.97c9.38,0,17,7.61,17,17V426
			C277.91,435.38,270.29,443,260.91,443z M196.94,408.99h46.96V-9.69h-46.96V408.99z"/>
		<path fill="#8B8C8C" d="M260.91,643h-80.97c-9.39,0-17-7.62-17-17v-95.14c0-9.38,7.61-17,17-17h80.97c9.38,0,17,7.62,17,17V626
			C277.91,635.38,270.29,643,260.91,643z M196.94,608.99h46.96v-61.13h-46.96V608.99z"/>
	</g>
</g>
<g id="Info" display="none">
	<g display="inline">
		<path fill="#8B8C8C" d="M261.86,615.52h-80.97c-9.39,0-17-7.62-17-17v-324.7c0-9.39,7.61-17,17-17h80.97c9.38,0,17,7.61,17,17
			v324.7C278.86,607.91,271.25,615.52,261.86,615.52z M197.9,581.52h46.96V290.83H197.9V581.52z"/>
		<path fill="#8B8C8C" d="M221.37,140.24c-43.08,0-78.13-35.05-78.13-78.13c0-43.09,35.05-78.14,78.13-78.14
			c43.09,0,78.14,35.05,78.14,78.14C299.52,105.19,264.46,140.24,221.37,140.24z M221.37,17.97c-24.34,0-44.13,19.8-44.13,44.14
			s19.79,44.13,44.13,44.13s44.14-19.79,44.14-44.13S245.71,17.97,221.37,17.97z"/>
	</g>
</g>
<g id="Profil" display="none">
	<path display="inline" fill="#8B8C8C" d="M396.52,616.34c-0.06-0.01-0.13-0.01-0.2,0H160.39c-5.22,0-10.15-2.4-13.37-6.5
		s-4.38-9.46-3.14-14.53c0-0.03,8.68-35.57,18.09-75.95c-6.9-0.38-17.39-0.66-33.3-0.66l-26.08,0.08c-15.73,0-19.7-0.29-23.56-1.75
		c-14.24-5.35-40.06-43.74-40.27-44.11c-2.19-3.74-6.6-11.28-3.39-73.27c-66.8-24.35-68.24-27.09-71.48-33.27
		c-6.48-12.28-1.59-18.74,36.51-69.06c8.67-11.46,17.22-22.74,23.27-31.28c2.94-4.14,1.26-11.09-3.59-27.15
		C13,215.46,2.32,180.05,16.49,130.18C45.87,26.74,120.88-17.39,267.31-17.39c154.54,0,212.13,126.3,212.13,205.91
		c0,153.36-62.43,205.47-89.08,227.72c-2.68,2.23-4.9,4.04-6.46,5.61c-15.1,15.1,1.98,99.21,27.54,169.32
		c1.34,2.42,2.09,5.21,2.09,8.17C413.52,608.73,405.91,616.34,396.52,616.34z M181.99,582.34h190.36
		c-17.68-52.92-44.8-152.22-12.5-184.53c2.13-2.13,5.1-4.65,8.72-7.67c23-19.21,76.87-64.17,76.87-201.62
		c0-47.82-32-171.91-178.12-171.91c-161.03,0-200,59.05-218.12,122.86c-11.45,40.3-3.2,67.63,3.43,89.58
		c5.72,18.94,11.63,38.53-1.23,56.66c-6.22,8.76-14.99,20.36-23.9,32.12c-7.58,10.02-17.62,23.28-24.6,33.07
		c14.2,5.7,36.32,14.01,55.93,21.09c7.1,2.56,11.66,9.49,11.2,17.02c-1.63,26.61-2.37,59.12-1.04,68.07
		c4.1,5.92,16.49,21.71,22.42,27.59c2.12,0.06,5.58,0.12,11.18,0.12l26.08-0.08c50.57,0,60.12,2.39,66.68,10.63
		c3.48,4.37,4.76,9.97,3.52,15.37C192.62,537.82,186.25,564.6,181.99,582.34z"/>
</g>
<g id="Standort">
	<g>
		<path fill="#8B8C8C" d="M224.03,351.41c-70.03,0-127.01-56.97-127.01-127c0-70.04,56.98-127.02,127.01-127.02
			c70.03,0,127.01,56.98,127.01,127.02C351.04,294.43,294.06,351.41,224.03,351.41z M224.03,131.39
			c-51.28,0-93.01,41.73-93.01,93.02c0,51.28,41.72,93,93.01,93c51.29,0,93.01-41.72,93.01-93
			C317.04,173.12,275.32,131.39,224.03,131.39z"/>
		<path fill="#8B8C8C" d="M221.1,600.68c-5.05,0-9.84-2.25-13.07-6.13C199.54,584.34,0,343.08,0,224.39C0,100.66,100.5,0,224.03,0
			c119.76,0,217.18,99.69,217.18,222.22c0,61.73-54.78,159.51-100.72,230.66c-30.04,46.51-56.86,82.58-70.17,99.93
			C233.61,600.68,229.17,600.68,221.1,600.68z M224.03,34C117.48,34,34,117.63,34,224.39c0,82.73,126.6,257.21,188.46,334.08
			c42.88-50.54,184.75-249.34,184.75-336.26C407.21,116.67,326.75,34,224.03,34z"/>
	</g>
</g>
<g id="Dashboard" display="none">
	<g display="inline">
		<path fill="#8B8C8C" d="M218.9,458.45L218.9,458.45c-17.81,0-34.63-7.01-47.36-19.74c-25.51-25.51-25.13-67.42,0.85-93.42
			c21.92-21.91,115.1-47.95,126.17-47.95c4.51,0,9.22,1.86,12.41,5.05c4.3,4.3,5.98,10.58,4.39,16.45
			c-4.38,16.22-27.27,98.2-48.88,119.8C253.72,451.41,236.83,458.45,218.9,458.45z M274.46,337.79
			c-28.17,8.36-69.17,22.71-78.01,31.55c-11.35,11.36-14.78,31.42-0.86,45.33c12.69,12.7,34.25,12.55,46.87-0.07
			C250.38,406.68,263.61,372.65,274.46,337.79z"/>
		<path fill="#8B8C8C" d="M467.42,421.26H279.31c-9.38,0-17-7.62-17-17s7.62-17,17-17H449.7
			c-9.68-113.1-114.24-212.25-228.52-212.25c-120.04,0-217.96,112.22-228.19,212.25h177.92c9.39,0,17,7.62,17,17s-7.61,17-17,17
			h-195.8c-9.39,0-17-7.62-17-17c0-119.24,117.35-263.25,263.08-263.25c137.77,0,263.24,125.48,263.24,263.25
			C484.43,413.64,476.81,421.26,467.42,421.26z"/>
	</g>
</g>
</svg>
